<svg width="454" height="505" viewBox="0 0 454 505" fill="none" xmlns="http://www.w3.org/2000/svg">
<path d="M88.7625 424.141C165.109 468.506 288.892 468.507 365.238 424.142C441.586 379.776 441.586 307.848 365.238 263.483C288.891 219.117 165.109 219.117 88.7616 263.482C12.4151 307.847 12.4151 379.777 88.7625 424.141Z" fill="#F5F5F5"/>
<path d="M185.189 385.609C205.76 396.516 239.111 396.516 259.682 385.609C280.252 374.705 280.252 357.023 259.682 346.116C239.111 335.212 205.76 335.212 185.189 346.116C164.619 357.023 164.619 374.705 185.189 385.609Z" fill="#EBEBEB"/>
<path d="M363.349 358.611L289.827 405.828C288.741 406.525 286.982 406.525 285.896 405.828L193.929 346.767C192.843 346.07 192.843 344.939 193.929 344.242L267.453 297.025C268.539 296.328 270.299 296.328 271.385 297.025L363.349 356.086C364.434 356.784 364.434 357.914 363.349 358.611Z" fill="#EBEBEB"/>
<path d="M383.812 99.0537V120.737C383.812 120.737 375.799 124.907 361.082 124.907C346.371 124.907 338.373 120.73 338.373 120.73V99.4699L353.7 51.2211C353.499 52.7331 354.298 54.2855 356.096 55.4379C358.959 57.2781 361.717 57.4862 364.932 56.054C365.343 55.8783 365.723 55.6702 366.084 55.4379C367.99 54.2138 368.774 52.5412 368.429 50.9495L383.812 99.0537Z" fill="#F3541C"/>
<path opacity="0.5" d="M383.812 99.0537V120.737C383.812 120.737 375.799 124.907 361.082 124.907C346.371 124.907 338.373 120.73 338.373 120.73V99.4699L353.7 51.2211C353.499 52.7331 354.298 54.2855 356.096 55.4379C358.959 57.2781 361.717 57.4862 364.932 56.054C365.343 55.8783 365.723 55.6702 366.084 55.4379C367.99 54.2138 368.774 52.5412 368.429 50.9495L383.812 99.0537Z" fill="white"/>
<path d="M382.052 251.053C380.943 252.758 379.312 254.356 377.152 255.744C368.277 261.445 353.886 261.445 345.01 255.744C342.849 254.356 341.219 252.758 340.111 251.053C339.026 249.385 338.447 247.616 338.369 245.838V256.267V257.098C338.527 260.693 340.737 264.258 345.01 267.004C353.886 272.704 368.277 272.704 377.152 267.004C381.591 264.153 383.809 260.418 383.809 256.682V245.423C383.809 247.34 383.221 249.256 382.052 251.053Z" fill="#F3541C"/>
<path d="M382.052 239.793C380.943 241.498 379.312 243.097 377.152 244.485C376.633 244.818 376.091 245.128 375.536 245.423C367.162 249.867 355.001 249.867 346.627 245.423C346.072 245.128 345.53 244.818 345.011 244.485C342.85 243.097 341.22 241.499 340.111 239.793C339.027 238.126 338.448 236.356 338.37 234.579V245.008V245.838C338.448 247.616 339.027 249.385 340.111 251.053C341.22 252.758 342.851 254.356 345.011 255.744C353.887 261.445 368.278 261.445 377.153 255.744C379.314 254.356 380.944 252.759 382.053 251.053C383.221 249.256 383.81 247.34 383.81 245.423V234.163C383.809 236.08 383.22 237.996 382.052 239.793Z" fill="#FFEDE7"/>
<path d="M382.052 228.535C380.943 230.24 379.312 231.838 377.152 233.226C376.633 233.559 376.091 233.87 375.536 234.164C367.163 238.608 355.001 238.608 346.627 234.164C346.072 233.87 345.53 233.559 345.011 233.226C342.85 231.838 341.22 230.24 340.111 228.535C339.027 226.867 338.448 225.098 338.37 223.32V233.749V234.58C338.448 236.357 339.027 238.127 340.111 239.794C341.22 241.499 342.851 243.098 345.011 244.486C345.53 244.819 346.072 245.129 346.627 245.424C355.001 249.868 367.163 249.868 375.536 245.424C376.091 245.129 376.633 244.819 377.152 244.486C379.313 243.098 380.943 241.5 382.052 239.794C383.22 237.997 383.809 236.081 383.809 234.164V222.905C383.809 224.822 383.22 226.737 382.052 228.535Z" fill="#F3541C"/>
<path d="M338.369 99.4699V222.489V223.319C338.447 225.097 339.026 226.866 340.111 228.534C341.219 230.239 342.85 231.837 345.01 233.225C345.529 233.558 346.072 233.869 346.626 234.163C348.723 235.276 351.056 236.11 353.509 236.665L349.4 106.145L338.369 99.4699Z" fill="#F3541C"/>
<path d="M372.769 106.144L368.66 236.664C371.11 236.109 373.441 235.275 375.536 234.163C376.091 233.869 376.633 233.558 377.152 233.225C379.313 231.837 380.943 230.24 382.052 228.534C383.221 226.737 383.809 224.821 383.809 222.904V99.0547L372.769 106.144Z" fill="#F3541C"/>
<path d="M338.369 99.4699V222.489V223.319C338.447 225.097 339.026 226.866 340.111 228.534C341.219 230.239 342.85 231.837 345.01 233.225C345.529 233.558 346.072 233.869 346.626 234.163C348.723 235.276 351.056 236.11 353.509 236.665L349.4 106.145L338.369 99.4699Z" fill="#FA7252"/>
<path d="M372.769 106.144L368.66 236.664C371.11 236.109 373.441 235.275 375.536 234.163C376.091 233.869 376.633 233.558 377.152 233.225C379.313 231.837 380.943 230.24 382.052 228.534C383.221 226.737 383.809 224.821 383.809 222.904V99.0547L372.769 106.144Z" fill="#FF7D5F"/>
<path d="M349.401 106.145V235.41C350.719 235.918 352.091 236.344 353.51 236.665C355.956 237.219 358.52 237.496 361.084 237.496C363.649 237.496 366.213 237.219 368.659 236.664C370.079 236.342 371.451 235.916 372.768 235.408V106.144L349.401 106.145Z" fill="#F55E29"/>
<path d="M366.082 55.4379C365.722 55.6702 365.341 55.8783 364.931 56.054C361.715 57.4862 358.957 57.2781 356.094 55.4379C354.296 54.2855 353.497 52.7331 353.699 51.2211L358.93 34.9298C359.333 33.8582 360.204 33.33 361.081 33.33H361.088C361.966 33.33 362.843 33.8582 363.246 34.9218L368.42 50.9252C368.42 50.9333 368.427 50.9414 368.427 50.9495C368.772 52.5412 367.988 54.2138 366.082 55.4379Z" fill="#FA5C37"/>
<path d="M377.152 267.003C369.525 271.901 357.836 272.578 349.062 269.058C348.57 268.861 348.091 268.645 347.62 268.422C347.4 268.318 347.176 268.221 346.961 268.111C346.289 267.767 345.634 267.403 345.011 267.004C340.738 264.259 338.528 260.693 338.37 257.098V287.752C338.199 291.624 340.409 295.532 345.011 298.488C345.559 298.841 346.13 299.17 346.717 299.479C346.937 299.594 347.17 299.691 347.394 299.8C347.769 299.983 348.142 300.172 348.531 300.338C348.832 300.466 349.145 300.573 349.452 300.691C349.78 300.816 350.1 300.951 350.435 301.064C350.8 301.188 351.176 301.291 351.549 301.402C351.837 301.488 352.121 301.582 352.414 301.66C352.841 301.773 353.276 301.864 353.711 301.96C353.957 302.013 354.199 302.077 354.448 302.125C354.938 302.221 355.436 302.295 355.933 302.37C356.13 302.399 356.325 302.436 356.523 302.462C357.076 302.534 357.633 302.585 358.191 302.63C358.336 302.642 358.478 302.661 358.623 302.671C359.231 302.713 359.84 302.733 360.451 302.744C360.547 302.747 360.641 302.753 360.737 302.754C361.392 302.76 362.046 302.744 362.701 302.714C362.751 302.712 362.8 302.712 362.85 302.709C363.541 302.675 364.227 302.618 364.912 302.544C364.924 302.542 364.936 302.541 364.948 302.54C369.164 302.075 373.204 300.839 376.547 298.84C376.746 298.721 376.958 298.614 377.152 298.488C381.591 295.638 383.81 291.903 383.81 288.167V256.682C383.81 260.417 381.591 264.153 377.152 267.003Z" fill="#FA5C37"/>
<path d="M103.043 284.9C100.417 284.163 86.4053 275.291 84.9834 274.214C83.5605 273.136 80.7375 270.905 80.7375 267.058C80.7375 263.646 81.059 231.555 83.5614 216.046C84.7927 208.418 89.241 198.423 97.9578 192.414C106.675 186.405 115.43 182.056 122.818 185.463C130.206 188.871 136.938 195.151 139.842 202.726C142.746 210.301 144.738 225.47 144.944 231.338C145.15 237.206 144.944 257.331 144.944 259.116C144.944 260.9 144.653 263.229 136.003 269.187C127.352 275.146 115.397 282.313 111.701 284.164C108.889 285.571 105.423 285.567 103.043 284.9Z" fill="#F3541C"/>
<path d="M100.879 196.583C100.083 197.094 97.7735 195.828 97.4266 195.194C97.0798 194.559 96.9917 189.053 98.7132 186.01C100.436 182.967 111.206 177.369 113.866 177.782C116.525 178.194 118.477 180.509 118.808 181.293C119.14 182.077 119.502 187.198 118.808 188.244C118.114 189.289 115.657 187.682 115.441 187.232C115.225 186.781 116.252 183.047 114.514 182.267C112.937 181.559 105.446 185.101 102.384 187.956C101.06 189.191 101.126 192.278 101.183 193.805C101.241 195.33 101.283 196.324 100.879 196.583Z" fill="#F79978"/>
<path d="M98.7132 232.727C100.261 216.046 103.043 206.315 117.709 199.051C132.374 191.787 138.058 197.973 140.138 203.534C142.88 211.333 144.745 225.67 144.944 231.336C145.15 237.204 144.944 257.329 144.944 259.113C144.944 260.898 144.653 263.227 136.003 269.185C127.352 275.144 115.397 282.311 111.701 284.161C108.889 285.57 105.423 285.566 103.043 284.899C102.678 284.797 102.088 284.533 101.349 284.16C96.7828 277.665 97.3004 247.953 98.7132 232.727Z" fill="#F79978"/>
<path d="M132.9 192.536C129.077 190.043 122.788 188.399 113.568 192.97C97.077 201.143 92.892 211.374 91.2286 229.295C90.9235 232.582 90.4813 236.499 90.2906 240.713L88.9295 239.799C89.122 235.252 89.5161 231.36 89.862 227.849C91.6462 209.755 96.5585 199.753 112.313 191.949C121.032 187.631 126.769 188.198 130.559 190.321C131.282 190.939 131.961 191.547 132.9 192.536Z" fill="#E03B14"/>
<path d="M133.473 193.001C129.65 190.508 123.361 188.864 114.141 193.433C97.6509 201.607 93.465 211.837 91.8016 229.759C91.4965 233.045 91.0543 236.962 90.8636 241.177L89.5025 240.263C89.695 235.716 90.0891 231.823 90.435 228.314C92.2192 210.219 97.1315 200.217 112.886 192.414C121.605 188.095 127.496 188.812 131.288 190.935C132.011 191.553 132.534 192.011 133.473 193.001Z" fill="#F79978"/>
<path d="M128.138 208.853L123.155 205.691C122.644 205.366 121.991 205.563 121.697 206.131L116.583 216.019C116.289 216.586 116.463 217.314 116.972 217.644L121.894 220.837C122.403 221.166 123.054 220.975 123.349 220.408L128.529 210.467C128.824 209.9 128.649 209.177 128.138 208.853Z" fill="#E03B14"/>
<path d="M122.792 219.703L127.701 210.282C127.849 209.998 127.761 209.638 127.506 209.475L122.988 206.608C122.732 206.445 122.406 206.544 122.259 206.828L117.406 216.209C117.259 216.492 117.346 216.856 117.601 217.021L122.064 219.916C122.319 220.083 122.644 219.987 122.792 219.703Z" fill="#F79978"/>
<path d="M123.844 215.199C124.105 215.031 124.317 214.659 124.317 214.368V209.86C124.317 209.569 124.105 209.47 123.844 209.638C123.582 209.805 123.371 210.177 123.371 210.468V214.975C123.371 215.267 123.582 215.366 123.844 215.199Z" fill="#F3541C"/>
<path d="M121.206 216.892C121.468 216.725 121.679 216.353 121.679 216.062V211.555C121.679 211.264 121.468 211.165 121.206 211.332C120.945 211.5 120.733 211.872 120.733 212.163V216.67C120.733 216.961 120.945 217.061 121.206 216.892Z" fill="#F3541C"/>
<path d="M105.509 246.823C105.509 246.823 107.982 249.088 109.755 257.611C111.526 266.132 112.607 276.875 110.647 278.161C108.688 279.448 105.902 276.752 105.207 275.822C103.782 273.913 104.137 253.652 105.509 246.823Z" fill="#E03B14"/>
<path d="M105.509 246.823C105.509 246.823 107.982 249.088 109.754 257.611C111.526 266.132 112.607 276.875 110.647 278.161L140.649 258.505C142.609 257.219 143.091 245.936 141.319 237.415C140.153 231.8 138.002 229.136 136.671 227.971C136.053 227.43 135.2 227.371 134.522 227.816L105.509 246.823Z" fill="#F3541C"/>
<path d="M136.035 229.258C137.472 230.052 139.904 232.218 141.003 237.99C141.35 239.812 140.774 241.588 139.776 242.373C138.777 243.158 117.336 256.725 114.493 258.61C112.042 260.235 110.765 258.074 110.227 256.725H110.225C109.33 254.319 108.533 252.45 107.86 251.015C106.605 247.829 105.508 246.822 105.508 246.822L134.084 229.355C134.681 228.965 135.416 228.917 136.035 229.258Z" fill="#E03B14"/>
<path d="M91.2404 242.153C91.2404 242.153 92.1012 245.872 92.0504 247.46C92.0385 247.827 91.61 248.016 91.4792 248.02C90.7156 248.04 88.8596 246.754 88.7035 246.409C88.5464 246.063 89.4462 241.884 89.4462 241.884L91.2404 242.153Z" fill="#E03B14"/>
<path d="M92.1667 240.738C92.1667 239.674 91.3912 238.811 90.4351 238.811C89.479 238.811 88.7036 239.674 88.7036 240.738C88.7036 241.801 89.479 242.664 90.4351 242.664C91.3921 242.664 92.1667 241.801 92.1667 240.738Z" fill="#E03B14"/>
<path d="M113.866 182.178C115.765 181.975 117.55 182.16 118.007 184.285C118.464 186.409 118.298 188.318 118.007 188.587C117.014 188.547 115.603 187.567 115.441 187.231C115.225 186.78 116.252 183.046 114.514 182.266C114.355 182.195 114.134 182.169 113.866 182.178Z" fill="#E03B14"/>
<path d="M134.687 227.707C135.283 227.317 136.017 227.267 136.637 227.61C138.074 228.403 140.507 230.57 141.605 236.342C141.952 238.164 141.376 239.94 140.378 240.724C139.379 241.509 117.938 255.077 115.095 256.961C112.644 258.586 111.367 256.426 110.829 255.077C107.866 248.168 105.51 246.823 105.51 246.823L134.687 227.707Z" fill="#F3541C"/>
<path d="M129.543 345.211L105.501 329.771C104.309 329.005 103.342 327.142 103.342 325.611L103.33 325.919C103.33 324.387 104.297 322.524 105.49 321.759L153.842 290.707C155.034 289.942 156.968 289.942 158.161 290.707L182.203 306.147C183.396 306.913 184.362 308.776 184.362 310.307L184.374 309.999C184.374 311.531 183.407 313.394 182.215 314.16L133.863 345.211C132.67 345.978 130.736 345.978 129.543 345.211Z" fill="#4F64D9"/>
<path opacity="0.7" d="M129.543 345.211L105.501 329.771C104.309 329.005 103.342 327.142 103.342 325.611L103.33 325.919C103.33 324.387 104.297 322.524 105.49 321.759L153.842 290.707C155.034 289.942 156.968 289.942 158.161 290.707L182.203 306.147C183.396 306.913 184.362 308.776 184.362 310.307L184.374 309.999C184.374 311.531 183.407 313.394 182.215 314.16L133.863 345.211C132.67 345.978 130.736 345.978 129.543 345.211Z" fill="black"/>
<path d="M131.691 304.931L105.49 321.758C104.296 322.523 103.33 324.387 103.33 325.918L103.342 325.61C103.342 327.142 104.309 329.004 105.501 329.77L129.543 345.21C130.14 345.593 130.922 345.785 131.703 345.785L131.691 304.931Z" fill="#4F64D9"/>
<path opacity="0.7" d="M131.691 304.931L105.49 321.758C104.296 322.523 103.33 324.387 103.33 325.918L103.342 325.61C103.342 327.142 104.309 329.004 105.501 329.77L129.543 345.21C130.14 345.593 130.922 345.785 131.703 345.785L131.691 304.931Z" fill="black"/>
<path d="M105.489 324.532L129.531 339.972C130.724 340.738 132.657 340.738 133.85 339.972L182.202 308.921C183.395 308.155 183.395 306.913 182.202 306.147L158.16 290.707C156.967 289.942 155.034 289.942 153.841 290.707L105.489 321.759C104.296 322.524 104.296 323.766 105.489 324.532Z" fill="#4F64D9"/>
<path opacity="0.5" d="M105.489 324.532L129.531 339.972C130.724 340.738 132.657 340.738 133.85 339.972L182.202 308.921C183.395 308.155 183.395 306.913 182.202 306.147L158.16 290.707C156.967 289.942 155.034 289.942 153.841 290.707L105.489 321.759C104.296 322.524 104.296 323.766 105.489 324.532Z" fill="black"/>
<path d="M105.489 319.456V322.015L130.444 338.042C131.215 338.537 132.165 338.537 132.936 338.042L182.201 306.404V303.759L131.691 330.994L105.489 319.456Z" fill="#4F64D9"/>
<path d="M129.532 334.896L105.49 319.456C104.297 318.69 103.33 316.827 103.33 315.296V310.35C103.33 308.818 104.297 306.955 105.49 306.19L153.842 275.138C155.034 274.373 156.968 274.373 158.161 275.138L182.203 290.578C183.396 291.344 184.362 293.207 184.362 294.738V299.684C184.362 301.216 183.395 302.993 182.203 303.759L133.851 334.896C132.658 335.662 130.724 335.662 129.532 334.896Z" fill="#4F64D9"/>
<path opacity="0.6" d="M129.532 334.896L105.49 319.456C104.297 318.69 103.33 316.827 103.33 315.296V310.35C103.33 308.818 104.297 306.955 105.49 306.19L153.842 275.138C155.034 274.373 156.968 274.373 158.161 275.138L182.203 290.578C183.396 291.344 184.362 293.207 184.362 294.738V299.684C184.362 301.216 183.395 302.993 182.203 303.759L133.851 334.896C132.658 335.662 130.724 335.662 129.532 334.896Z" fill="black"/>
<path d="M131.691 289.362L105.49 306.189C104.296 306.954 103.33 308.818 103.33 310.349V315.295C103.33 316.827 104.297 318.689 105.49 319.455L129.532 334.895C130.128 335.278 130.909 335.469 131.691 335.469V289.362Z" fill="#4F64D9"/>
<path opacity="0.7" d="M131.691 289.362L105.49 306.189C104.296 306.954 103.33 308.818 103.33 310.349V315.295C103.33 316.827 104.297 318.689 105.49 319.455L129.532 334.895C130.128 335.278 130.909 335.469 131.691 335.469V289.362Z" fill="black"/>
<path d="M105.489 308.963L129.531 324.403C130.724 325.169 132.657 325.169 133.85 324.403L182.202 293.351C183.395 292.586 183.395 291.344 182.202 290.578L158.16 275.138C156.967 274.373 155.034 274.373 153.841 275.138L105.489 306.19C104.296 306.955 104.296 308.196 105.489 308.963Z" fill="#4F64D9"/>
<path opacity="0.5" d="M105.489 308.963L129.531 324.403C130.724 325.169 132.657 325.169 133.85 324.403L182.202 293.351C183.395 292.586 183.395 291.344 182.202 290.578L158.16 275.138C156.967 274.373 155.034 274.373 153.841 275.138L105.489 306.19C104.296 306.955 104.296 308.196 105.489 308.963Z" fill="black"/>
<path d="M139.024 296.692C136.361 298.401 136.361 301.163 139.024 302.86C141.687 304.555 146.005 304.555 148.668 302.86C151.331 301.164 151.331 298.402 148.668 296.692C146.005 294.981 141.687 294.981 139.024 296.692Z" fill="#4F64D9"/>
<path d="M178.284 298.495C177.818 298.789 177.44 299.521 177.44 300.129C177.44 300.737 177.818 300.991 178.284 300.697C178.75 300.403 179.127 299.672 179.127 299.064C179.127 298.456 178.75 298.202 178.284 298.495Z" fill="#4F64D9"/>
<path d="M178.284 302.123C177.818 302.417 177.44 303.148 177.44 303.756C177.44 304.365 177.818 304.619 178.284 304.325C178.75 304.031 179.127 303.3 179.127 302.692C179.127 302.083 178.75 301.829 178.284 302.123Z" fill="#4F64D9"/>
<path d="M119.464 365.572C119.356 365.572 119.246 365.541 119.145 365.476L95.8503 350.44C94.6081 349.638 93.8672 348.206 93.869 346.609C93.8708 345.011 94.6145 343.581 95.8575 342.782L112.936 331.814C113.238 331.619 113.629 331.735 113.803 332.073C113.979 332.41 113.875 332.842 113.571 333.037L96.4922 344.005C95.646 344.548 95.1402 345.523 95.1384 346.61C95.1375 347.698 95.6414 348.672 96.4868 349.219L119.782 364.254C120.085 364.45 120.188 364.883 120.012 365.219C119.896 365.445 119.683 365.572 119.464 365.572Z" fill="#4F64D9"/>
<path d="M148.648 351.081L143.598 328.529C143.527 328.207 143.43 327.91 143.323 327.626L144.792 327.388L141.589 325.328C140.371 324.538 138.798 324.548 137.257 325.542L116.199 339.123C113.461 340.888 111.243 345.174 111.244 348.693L111.249 375.805C111.25 377.959 111.725 379.447 112.692 379.962L112.685 379.964L115.702 381.899L114.973 379.762C115.026 379.736 115.076 379.717 115.131 379.687C118.594 377.848 119.849 374.499 120.883 371.173L124.886 358.303C125.92 354.976 128.498 351.164 130.643 349.788C132.788 348.413 135.797 349.776 137.365 352.833L139.375 356.753C140.055 358.079 141.009 359.083 142.046 359.683L145.12 361.668L144.338 360.32C144.964 360.305 145.572 360.133 146.124 359.778C148.283 358.389 149.413 354.497 148.648 351.081Z" fill="#4F64D9"/>
<path opacity="0.7" d="M148.648 351.081L143.598 328.529C143.527 328.207 143.43 327.91 143.323 327.626L144.792 327.388L141.589 325.328C140.371 324.538 138.798 324.548 137.257 325.542L116.199 339.123C113.461 340.888 111.243 345.174 111.244 348.693L111.249 375.805C111.25 377.959 111.725 379.447 112.692 379.962L112.685 379.964L115.702 381.899L114.973 379.762C115.026 379.736 115.076 379.717 115.131 379.687C118.594 377.848 119.849 374.499 120.883 371.173L124.886 358.303C125.92 354.976 128.498 351.164 130.643 349.788C132.788 348.413 135.797 349.776 137.365 352.833L139.375 356.753C140.055 358.079 141.009 359.083 142.046 359.683L145.12 361.668L144.338 360.32C144.964 360.305 145.572 360.133 146.124 359.778C148.283 358.389 149.413 354.497 148.648 351.081Z" fill="black"/>
<path d="M143.323 327.626L144.792 327.388L141.589 325.328C140.371 324.538 138.798 324.548 137.257 325.542L116.199 339.123C115.091 339.838 114.078 340.974 113.253 342.296L118.261 345.692L143.842 329.618L143.598 328.53C143.527 328.207 143.43 327.91 143.323 327.626Z" fill="#4F64D9"/>
<path opacity="0.5" d="M143.323 327.626L144.792 327.388L141.589 325.328C140.371 324.538 138.798 324.548 137.257 325.542L116.199 339.123C115.091 339.838 114.078 340.974 113.253 342.296L118.261 345.692L143.842 329.618L143.598 328.53C143.527 328.207 143.43 327.91 143.323 327.626Z" fill="black"/>
<path d="M149.397 361.882C147.238 363.269 144.216 361.914 142.648 358.857L140.637 354.937C139.069 351.88 136.059 350.516 133.915 351.892C131.77 353.268 129.192 357.079 128.158 360.406L124.154 373.277C123.12 376.604 121.864 379.952 118.402 381.791C115.783 383.183 114.522 381.429 114.521 377.909L114.516 350.796C114.515 347.276 116.734 342.992 119.472 341.226L140.529 327.646C143.267 325.881 146.106 327.218 146.871 330.634L151.92 353.186C152.687 356.602 151.556 360.495 149.397 361.882Z" fill="#4F64D9"/>
<path opacity="0.6" d="M149.397 361.882C147.238 363.269 144.216 361.914 142.648 358.857L140.637 354.937C139.069 351.88 136.059 350.516 133.915 351.892C131.77 353.268 129.192 357.079 128.158 360.406L124.154 373.277C123.12 376.604 121.864 379.952 118.402 381.791C115.783 383.183 114.522 381.429 114.521 377.909L114.516 350.796C114.515 347.276 116.734 342.992 119.472 341.226L140.529 327.646C143.267 325.881 146.106 327.218 146.871 330.634L151.92 353.186C152.687 356.602 151.556 360.495 149.397 361.882Z" fill="black"/>
<path d="M141.232 335.454L141.759 338.778L144.086 337.116L144.613 340.44L142.285 342.104L142.814 345.428L140.489 347.088L139.961 343.766L137.636 345.426L137.11 342.102L139.434 340.442L138.908 337.118L141.232 335.454Z" fill="#263238"/>
<path d="M141.903 335.847L142.43 339.171L144.757 337.51L145.285 340.834L142.956 342.497L143.485 345.821L141.161 347.481L140.633 344.158L138.308 345.819L137.782 342.495L140.106 340.836L139.58 337.512L141.903 335.847Z" fill="#4F64D9"/>
<path d="M123.612 347.214C123.758 348.132 123.355 349.248 122.713 349.707C122.072 350.167 121.433 349.795 121.288 348.877C121.143 347.959 121.545 346.843 122.187 346.384C122.829 345.924 123.467 346.296 123.612 347.214Z" fill="#263238"/>
<path d="M124.667 353.862C124.812 354.78 124.41 355.896 123.768 356.355C123.126 356.815 122.487 356.443 122.342 355.525C122.197 354.607 122.599 353.491 123.241 353.031C123.883 352.573 124.521 352.943 124.667 353.862Z" fill="#263238"/>
<path d="M126.465 348.876C126.611 349.794 126.208 350.91 125.566 351.37C124.924 351.829 124.286 351.458 124.141 350.54C123.996 349.622 124.398 348.506 125.04 348.046C125.682 347.586 126.32 347.958 126.465 348.876Z" fill="#263238"/>
<path d="M121.818 352.2C121.963 353.118 121.561 354.234 120.919 354.694C120.277 355.153 119.639 354.782 119.494 353.864C119.348 352.946 119.751 351.829 120.393 351.37C121.035 350.91 121.673 351.282 121.818 352.2Z" fill="#263238"/>
<path d="M123.66 347.248C123.806 348.166 123.403 349.282 122.761 349.741C122.119 350.201 121.481 349.829 121.336 348.911C121.191 347.993 121.593 346.877 122.235 346.418C122.877 345.958 123.515 346.33 123.66 347.248Z" fill="#263238"/>
<path d="M124.715 353.896C124.86 354.814 124.458 355.93 123.816 356.39C123.174 356.849 122.536 356.477 122.39 355.559C122.245 354.641 122.647 353.525 123.289 353.066C123.931 352.606 124.569 352.978 124.715 353.896Z" fill="#263238"/>
<path d="M126.514 348.91C126.659 349.828 126.257 350.944 125.615 351.403C124.973 351.863 124.334 351.491 124.189 350.573C124.044 349.655 124.446 348.539 125.088 348.079C125.73 347.62 126.368 347.992 126.514 348.91Z" fill="#263238"/>
<path d="M121.866 352.233C122.012 353.152 121.609 354.268 120.967 354.727C120.325 355.187 119.687 354.815 119.542 353.897C119.397 352.979 119.799 351.863 120.441 351.403C121.083 350.945 121.721 351.316 121.866 352.233Z" fill="#263238"/>
<path d="M123.709 347.281C123.854 348.2 123.452 349.316 122.81 349.775C122.168 350.235 121.529 349.863 121.384 348.945C121.239 348.027 121.641 346.911 122.283 346.451C122.925 345.993 123.563 346.364 123.709 347.281Z" fill="#263238"/>
<path d="M124.763 353.929C124.908 354.847 124.506 355.963 123.864 356.423C123.222 356.883 122.584 356.511 122.438 355.593C122.293 354.675 122.695 353.559 123.337 353.099C123.979 352.64 124.618 353.012 124.763 353.929Z" fill="#263238"/>
<path d="M126.562 348.944C126.707 349.862 126.305 350.978 125.663 351.438C125.021 351.897 124.382 351.525 124.237 350.607C124.092 349.689 124.494 348.573 125.136 348.114C125.778 347.654 126.416 348.026 126.562 348.944Z" fill="#263238"/>
<path d="M121.914 352.268C122.06 353.186 121.657 354.302 121.016 354.761C120.374 355.221 119.735 354.849 119.59 353.931C119.445 353.013 119.847 351.897 120.489 351.438C121.131 350.978 121.768 351.35 121.914 352.268Z" fill="#263238"/>
<path d="M123.757 347.316C123.902 348.234 123.5 349.35 122.858 349.809C122.216 350.269 121.578 349.897 121.432 348.979C121.287 348.061 121.689 346.945 122.331 346.486C122.973 346.026 123.611 346.398 123.757 347.316Z" fill="#263238"/>
<path d="M124.811 353.964C124.956 354.882 124.554 355.998 123.912 356.457C123.27 356.917 122.632 356.545 122.486 355.627C122.341 354.709 122.743 353.593 123.385 353.133C124.027 352.674 124.666 353.046 124.811 353.964Z" fill="#263238"/>
<path d="M126.61 348.978C126.755 349.896 126.353 351.012 125.711 351.472C125.069 351.931 124.431 351.56 124.285 350.642C124.14 349.724 124.542 348.608 125.184 348.148C125.826 347.688 126.464 348.06 126.61 348.978Z" fill="#263238"/>
<path d="M121.963 352.302C122.108 353.22 121.706 354.336 121.064 354.796C120.422 355.255 119.783 354.884 119.638 353.966C119.493 353.048 119.895 351.931 120.537 351.472C121.179 351.012 121.817 351.384 121.963 352.302Z" fill="#263238"/>
<path d="M123.805 347.35C123.95 348.268 123.548 349.384 122.906 349.844C122.264 350.303 121.626 349.932 121.48 349.014C121.335 348.096 121.737 346.979 122.379 346.52C123.021 346.06 123.66 346.432 123.805 347.35Z" fill="#263238"/>
<path d="M124.859 353.998C125.004 354.916 124.602 356.032 123.96 356.492C123.318 356.951 122.68 356.58 122.535 355.661C122.389 354.743 122.792 353.627 123.434 353.168C124.075 352.708 124.714 353.08 124.859 353.998Z" fill="#263238"/>
<path d="M126.658 349.012C126.803 349.93 126.401 351.046 125.759 351.505C125.117 351.965 124.479 351.593 124.333 350.675C124.188 349.757 124.59 348.641 125.232 348.181C125.874 347.722 126.513 348.093 126.658 349.012Z" fill="#263238"/>
<path d="M122.011 352.335C122.156 353.254 121.754 354.37 121.112 354.829C120.47 355.289 119.832 354.917 119.686 353.999C119.541 353.081 119.943 351.965 120.585 351.505C121.227 351.047 121.865 351.418 122.011 352.335Z" fill="#263238"/>
<path d="M123.853 347.383C123.998 348.302 123.596 349.418 122.954 349.877C122.312 350.337 121.674 349.965 121.529 349.047C121.383 348.129 121.785 347.013 122.427 346.553C123.069 346.095 123.708 346.466 123.853 347.383Z" fill="#263238"/>
<path d="M124.907 354.031C125.052 354.949 124.65 356.065 124.008 356.525C123.366 356.984 122.728 356.613 122.583 355.695C122.437 354.777 122.84 353.661 123.482 353.201C124.124 352.743 124.762 353.114 124.907 354.031Z" fill="#263238"/>
<path d="M126.706 349.046C126.851 349.964 126.449 351.08 125.807 351.54C125.165 351.999 124.527 351.627 124.381 350.709C124.236 349.791 124.638 348.675 125.28 348.216C125.922 347.756 126.561 348.128 126.706 349.046Z" fill="#263238"/>
<path d="M122.059 352.37C122.204 353.288 121.802 354.404 121.16 354.864C120.518 355.323 119.88 354.951 119.734 354.033C119.589 353.115 119.991 351.999 120.633 351.54C121.275 351.08 121.913 351.452 122.059 352.37Z" fill="#263238"/>
<path d="M123.901 347.418C124.046 348.336 123.644 349.452 123.002 349.911C122.36 350.371 121.722 349.999 121.577 349.081C121.431 348.163 121.834 347.047 122.476 346.588C123.118 346.128 123.756 346.5 123.901 347.418Z" fill="#263238"/>
<path d="M124.955 354.066C125.101 354.984 124.698 356.1 124.056 356.559C123.414 357.019 122.776 356.647 122.631 355.729C122.486 354.811 122.888 353.695 123.53 353.235C124.172 352.776 124.81 353.147 124.955 354.066Z" fill="#263238"/>
<path d="M126.754 349.079C126.899 349.997 126.497 351.113 125.855 351.573C125.213 352.032 124.575 351.661 124.43 350.743C124.284 349.825 124.687 348.709 125.329 348.249C125.971 347.789 126.609 348.162 126.754 349.079Z" fill="#263238"/>
<path d="M122.107 352.403C122.252 353.321 121.85 354.437 121.208 354.897C120.566 355.356 119.928 354.985 119.782 354.067C119.637 353.149 120.039 352.032 120.681 351.573C121.322 351.114 121.961 351.486 122.107 352.403Z" fill="#263238"/>
<path d="M123.949 347.452C124.095 348.37 123.692 349.486 123.05 349.946C122.408 350.405 121.77 350.034 121.625 349.116C121.479 348.197 121.882 347.081 122.524 346.622C123.166 346.162 123.804 346.534 123.949 347.452Z" fill="#263238"/>
<path d="M125.003 354.1C125.149 355.018 124.746 356.134 124.105 356.594C123.463 357.053 122.824 356.681 122.679 355.763C122.534 354.845 122.936 353.729 123.578 353.27C124.22 352.81 124.857 353.182 125.003 354.1Z" fill="#263238"/>
<path d="M126.802 349.114C126.947 350.032 126.545 351.148 125.903 351.607C125.261 352.067 124.623 351.695 124.478 350.777C124.332 349.859 124.735 348.743 125.377 348.283C126.019 347.824 126.657 348.195 126.802 349.114Z" fill="#263238"/>
<path d="M122.154 352.437C122.299 353.356 121.897 354.472 121.255 354.931C120.613 355.391 119.975 355.019 119.83 354.101C119.684 353.183 120.087 352.067 120.729 351.607C121.371 351.148 122.009 351.519 122.154 352.437Z" fill="#263238"/>
<path d="M123.997 347.485C124.143 348.404 123.74 349.52 123.098 349.979C122.457 350.439 121.818 350.067 121.673 349.149C121.528 348.231 121.93 347.115 122.572 346.655C123.214 346.196 123.852 346.567 123.997 347.485Z" fill="#263238"/>
<path d="M125.052 354.133C125.197 355.051 124.795 356.167 124.153 356.627C123.511 357.087 122.872 356.715 122.727 355.797C122.582 354.879 122.984 353.763 123.626 353.303C124.268 352.844 124.905 353.215 125.052 354.133Z" fill="#263238"/>
<path d="M126.85 349.148C126.996 350.066 126.593 351.182 125.951 351.642C125.309 352.101 124.671 351.729 124.526 350.811C124.381 349.893 124.783 348.777 125.425 348.318C126.067 347.858 126.705 348.23 126.85 349.148Z" fill="#263238"/>
<path d="M122.202 352.472C122.348 353.39 121.945 354.506 121.303 354.965C120.661 355.425 120.023 355.053 119.878 354.135C119.733 353.217 120.135 352.101 120.777 351.642C121.419 351.182 122.057 351.554 122.202 352.472Z" fill="#263238"/>
<path d="M124.045 347.52C124.191 348.438 123.789 349.554 123.147 350.013C122.505 350.473 121.866 350.101 121.721 349.183C121.576 348.265 121.978 347.149 122.62 346.69C123.262 346.23 123.9 346.602 124.045 347.52Z" fill="#263238"/>
<path d="M125.1 354.168C125.245 355.086 124.843 356.202 124.201 356.661C123.559 357.121 122.92 356.749 122.775 355.831C122.63 354.913 123.032 353.797 123.674 353.337C124.316 352.878 124.954 353.25 125.1 354.168Z" fill="#263238"/>
<path d="M126.898 349.181C127.044 350.099 126.642 351.215 126 351.675C125.358 352.134 124.719 351.763 124.574 350.845C124.429 349.927 124.831 348.811 125.473 348.351C126.115 347.892 126.753 348.264 126.898 349.181Z" fill="#263238"/>
<path d="M122.25 352.505C122.396 353.423 121.993 354.539 121.351 354.999C120.71 355.458 120.071 355.087 119.926 354.169C119.781 353.251 120.183 352.134 120.825 351.675C121.467 351.216 122.105 351.588 122.25 352.505Z" fill="#263238"/>
<path d="M124.094 347.553C124.239 348.471 123.837 349.587 123.195 350.047C122.553 350.506 121.914 350.135 121.769 349.217C121.624 348.298 122.026 347.182 122.668 346.723C123.31 346.264 123.948 346.636 124.094 347.553Z" fill="#263238"/>
<path d="M125.148 354.201C125.293 355.119 124.891 356.235 124.249 356.695C123.607 357.154 122.969 356.783 122.823 355.864C122.678 354.946 123.08 353.83 123.722 353.371C124.364 352.912 125.002 353.284 125.148 354.201Z" fill="#263238"/>
<path d="M126.947 349.216C127.092 350.134 126.69 351.25 126.048 351.709C125.406 352.169 124.767 351.797 124.622 350.879C124.477 349.961 124.879 348.845 125.521 348.385C126.163 347.926 126.801 348.297 126.947 349.216Z" fill="#263238"/>
<path d="M122.299 352.54C122.444 353.458 122.042 354.574 121.4 355.033C120.758 355.493 120.119 355.121 119.974 354.203C119.829 353.285 120.231 352.169 120.873 351.709C121.515 351.25 122.153 351.621 122.299 352.54Z" fill="#263238"/>
<path d="M124.142 347.587C124.287 348.506 123.885 349.622 123.243 350.081C122.601 350.541 121.963 350.169 121.817 349.251C121.672 348.333 122.074 347.217 122.716 346.757C123.358 346.298 123.996 346.669 124.142 347.587Z" fill="#263238"/>
<path d="M125.196 354.235C125.341 355.153 124.939 356.269 124.297 356.729C123.655 357.188 123.017 356.817 122.871 355.899C122.726 354.981 123.128 353.865 123.77 353.405C124.412 352.945 125.05 353.317 125.196 354.235Z" fill="#263238"/>
<path d="M126.995 349.25C127.14 350.168 126.738 351.284 126.096 351.744C125.454 352.203 124.816 351.831 124.67 350.913C124.525 349.995 124.927 348.879 125.569 348.42C126.211 347.96 126.849 348.332 126.995 349.25Z" fill="#263238"/>
<path d="M122.347 352.573C122.492 353.491 122.09 354.607 121.448 355.067C120.806 355.526 120.167 355.154 120.022 354.236C119.877 353.318 120.279 352.202 120.921 351.743C121.563 351.284 122.201 351.656 122.347 352.573Z" fill="#263238"/>
<path d="M141.232 335.454L141.903 335.847L139.58 337.512L138.908 337.118L141.232 335.454Z" fill="#263238"/>
<path d="M139.434 340.442L140.106 340.836L137.782 342.495L137.11 342.102L139.434 340.442Z" fill="#263238"/>
<path d="M142.43 339.171L142.305 338.388L144.086 337.116L144.757 337.51L142.43 339.171Z" fill="#263238"/>
<path d="M137.11 342.102L137.782 342.495L138.308 345.819L137.636 345.426L137.11 342.102Z" fill="#263238"/>
<path d="M140.489 347.088L141.161 347.481L140.633 344.159L140.086 344.549L140.489 347.088Z" fill="#263238"/>
<path d="M124.142 347.587C124.287 348.506 123.885 349.622 123.243 350.081C122.601 350.541 121.963 350.169 121.817 349.251C121.672 348.333 122.074 347.217 122.716 346.757C123.358 346.298 123.996 346.669 124.142 347.587Z" fill="#4F64D9"/>
<path d="M125.196 354.235C125.341 355.153 124.939 356.269 124.297 356.729C123.655 357.188 123.017 356.817 122.871 355.899C122.726 354.981 123.128 353.865 123.77 353.405C124.412 352.945 125.05 353.317 125.196 354.235Z" fill="#4F64D9"/>
<path d="M126.995 349.25C127.14 350.168 126.738 351.284 126.096 351.744C125.454 352.203 124.816 351.831 124.67 350.913C124.525 349.995 124.927 348.879 125.569 348.42C126.211 347.96 126.849 348.332 126.995 349.25Z" fill="#4F64D9"/>
<path d="M122.347 352.573C122.492 353.491 122.09 354.607 121.448 355.067C120.806 355.526 120.167 355.154 120.022 354.236C119.877 353.318 120.279 352.202 120.921 351.743C121.563 351.284 122.201 351.656 122.347 352.573Z" fill="#4F64D9"/>
<path d="M146.479 65.3359L136.72 71.6029C136.768 71.1181 136.802 70.6374 136.802 70.1657V67.0216C136.802 61.4262 133.27 59.1577 128.913 61.9554C127.149 63.0886 125.526 64.8844 124.212 66.9842C123.498 59.9475 118.535 57.3266 112.507 61.1979C105.989 65.3834 100.704 75.5642 100.704 83.9361V88.6406C100.704 90.8091 101.065 92.6352 101.703 94.0906L93.5976 99.2961C91.1805 100.849 89.2219 104.623 89.2219 107.727C89.2219 110.83 91.1814 112.089 93.5976 110.536L146.477 76.5772C148.894 75.0248 150.852 71.2505 150.852 68.1467C150.854 65.042 148.895 63.7835 146.479 65.3359Z" fill="#F0F0F0"/>
<path d="M349.278 347.549L347.501 346.414L348.789 345.767C348.789 345.767 349.802 346.064 349.826 346.117C349.85 346.169 349.755 346.895 349.755 346.895L349.278 347.549Z" fill="#E0E0E0"/>
<path d="M349.278 347.549L347.501 346.414L348.789 345.767C348.789 345.767 349.802 346.064 349.826 346.117C349.85 346.169 349.755 346.895 349.755 346.895L349.278 347.549Z" fill="#4F64D9"/>
<path opacity="0.1" d="M349.278 347.549L347.501 346.414L348.789 345.767C348.789 345.767 349.802 346.064 349.826 346.117C349.85 346.169 349.755 346.895 349.755 346.895L349.278 347.549Z" fill="white"/>
<path d="M281.711 385.414C283.143 386.334 285.466 386.334 286.898 385.414L345.138 348.01L257.955 292.014L255.919 290.703L197.681 328.108C196.253 329.03 196.253 330.529 197.681 331.44L281.711 385.414Z" fill="#4F64D9"/>
<path opacity="0.8" d="M281.711 385.414C283.143 386.334 285.466 386.334 286.898 385.414L345.138 348.01L257.955 292.014L255.919 290.703L197.681 328.108C196.253 329.03 196.253 330.529 197.681 331.44L281.711 385.414Z" fill="white"/>
<path d="M303.579 314.756L323.888 327.759L337.036 319.316L352.331 329.144C352.331 329.144 352.331 339.92 352.331 341.405C352.331 342.892 350.832 345.009 350.287 344.66C350.287 344.66 349.09 344.933 347.364 345.815C345.637 346.698 343.143 349.288 343.143 349.288L296.476 319.319L303.579 314.756Z" fill="#E0E0E0"/>
<path d="M303.579 314.756L323.888 327.759L337.036 319.316L352.331 329.144C352.331 329.144 352.331 339.92 352.331 341.405C352.331 342.892 350.832 345.009 350.287 344.66C350.287 344.66 349.09 344.933 347.364 345.815C345.637 346.698 343.143 349.288 343.143 349.288L296.476 319.319L303.579 314.756Z" fill="#4F64D9"/>
<path opacity="0.1" d="M303.579 314.756L323.888 327.759L337.036 319.316L352.331 329.144C352.331 329.144 352.331 339.92 352.331 341.405C352.331 342.892 350.832 345.009 350.287 344.66C350.287 344.66 349.09 344.933 347.364 345.815C345.637 346.698 343.143 349.288 343.143 349.288L296.476 319.319L303.579 314.756Z" fill="white"/>
<path d="M286.9 385.411L290.415 383.146L343.141 349.284C343.161 348.551 343.431 347.83 343.86 347.185C344.46 346.252 345.358 345.453 346.167 344.931C346.786 344.531 347.714 344.065 348.653 344.065C349.292 344.065 349.851 344.287 350.29 344.665C350.63 344.153 351.259 342.188 351.259 339.811H353.256C353.256 342.877 352.347 345.953 351.229 346.664L350.22 347.32C349.651 347.686 349.201 347.709 349.201 347.364V346.764C349.201 346.098 348.292 346.131 347.165 346.853C346.046 347.575 345.138 348.696 345.138 349.363V349.963C345.138 350.307 344.359 351.073 343.411 351.684L292.421 384.435L286.9 387.978C286.9 387.978 286.89 387.978 286.89 387.989C286.171 388.434 285.243 388.667 284.304 388.667V386.102C285.243 386.099 286.182 385.878 286.9 385.411Z" fill="#4F64D9"/>
<path opacity="0.6" d="M286.9 385.411L290.415 383.146L343.141 349.284C343.161 348.551 343.431 347.83 343.86 347.185C344.46 346.252 345.358 345.453 346.167 344.931C346.786 344.531 347.714 344.065 348.653 344.065C349.292 344.065 349.851 344.287 350.29 344.665C350.63 344.153 351.259 342.188 351.259 339.811H353.256C353.256 342.877 352.347 345.953 351.229 346.664L350.22 347.32C349.651 347.686 349.201 347.709 349.201 347.364V346.764C349.201 346.098 348.292 346.131 347.165 346.853C346.046 347.575 345.138 348.696 345.138 349.363V349.963C345.138 350.307 344.359 351.073 343.411 351.684L292.421 384.435L286.9 387.978C286.9 387.978 286.89 387.978 286.89 387.989C286.171 388.434 285.243 388.667 284.304 388.667V386.102C285.243 386.099 286.182 385.878 286.9 385.411Z" fill="white"/>
<path d="M196.613 329.737V332.347C196.613 332.947 196.952 333.535 197.642 333.99L197.682 334.012L276.197 384.432L281.709 387.975V387.986C281.709 387.986 281.719 387.975 281.719 387.986C282.438 388.431 283.366 388.664 284.305 388.664V386.099C283.366 386.099 282.428 385.877 281.709 385.41L278.204 383.156H278.194L197.681 331.436C196.918 330.944 196.616 330.367 196.613 329.737Z" fill="#4F64D9"/>
<path opacity="0.1" d="M196.613 329.737V332.347C196.613 332.947 196.952 333.535 197.642 333.99L197.682 334.012L276.197 384.432L281.709 387.975V387.986C281.709 387.986 281.719 387.975 281.719 387.986C282.438 388.431 283.366 388.664 284.305 388.664V386.099C283.366 386.099 282.428 385.877 281.709 385.41L278.204 383.156H278.194L197.681 331.436C196.918 330.944 196.616 330.367 196.613 329.737Z" fill="white"/>
<path d="M284.305 368.808V383.778C284.934 383.778 285.562 383.633 286.032 383.322L292.421 379.225L341.085 347.973L341.095 332.336L284.305 368.808Z" fill="white"/>
<path d="M199.139 315.988V327.516C199.139 328.738 199.918 330.237 200.866 330.848L276.197 379.225L282.577 383.322C283.046 383.633 283.675 383.778 284.304 383.778V370.395L199.139 315.988Z" fill="#F0F0F0"/>
<path d="M341.085 347.973C341.105 347.24 341.384 346.52 341.814 345.875C342.413 344.942 343.311 344.143 344.12 343.621C344.739 343.221 345.667 342.755 346.606 342.755C347.245 342.755 347.805 342.977 348.243 343.355V327.745L341.095 332.335L341.085 347.973Z" fill="#455A64"/>
<path d="M343.94 343.748C343.18 344.27 342.37 345.01 341.814 345.875C341.384 346.519 341.105 347.24 341.085 347.972L341.094 333.068H343.939V343.748H343.94Z" fill="#F5F5F5"/>
<path d="M257.956 273.741L345.138 329.737C345.138 329.737 345.138 330.314 345.138 331.036C345.138 331.758 346.047 332.024 347.165 331.302C348.292 330.58 349.201 329.681 349.201 328.437L349.311 327.204L260.482 270.164L260.122 269.931C260.032 270.119 259.972 270.331 259.972 270.531V271.13C259.973 271.854 259.074 273.008 257.956 273.741Z" fill="#4F64D9"/>
<path opacity="0.6" d="M257.956 273.741L345.138 329.737C345.138 329.737 345.138 330.314 345.138 331.036C345.138 331.758 346.047 332.024 347.165 331.302C348.292 330.58 349.201 329.681 349.201 328.437L349.311 327.204L260.482 270.164L260.122 269.931C260.032 270.119 259.972 270.331 259.972 270.531V271.13C259.973 271.854 259.074 273.008 257.956 273.741Z" fill="white"/>
<path d="M286.898 367.142L343.847 330.567C344.571 330.145 345.232 329.806 345.51 329.969L345.138 329.738L257.956 273.742C257.956 273.742 257.443 273.416 256.937 273.089C256.375 272.726 255.145 272.929 254.19 273.542L197.682 309.836C196.254 310.758 196.254 312.257 197.682 313.168L281.712 367.142C283.143 368.061 285.466 368.062 286.898 367.142Z" fill="#4F64D9"/>
<path opacity="0.8" d="M286.898 367.142L343.847 330.567C344.571 330.145 345.232 329.806 345.51 329.969L345.138 329.738L257.956 273.742C257.956 273.742 257.443 273.416 256.937 273.089C256.375 272.726 255.145 272.929 254.19 273.542L197.682 309.836C196.254 310.758 196.254 312.257 197.682 313.168L281.712 367.142C283.143 368.061 285.466 368.062 286.898 367.142Z" fill="white"/>
<path d="M260.123 269.932L260.482 270.165L349.312 327.205C349.312 327.205 349.372 327.049 349.502 326.938C349.582 326.883 349.682 326.827 349.802 326.749L350.441 326.338C350.68 326.183 350.95 326.005 351.23 325.827C351.599 325.594 351.939 325.638 352.239 325.927C352.279 325.949 352.309 325.983 352.338 326.027C352.438 326.138 352.528 326.283 352.608 326.438C352.698 326.605 352.778 326.794 352.838 326.994C352.908 327.194 352.968 327.416 353.018 327.638C353.068 327.883 353.108 328.127 353.148 328.394C353.177 328.538 353.187 328.694 353.197 328.849C353.207 328.971 353.217 329.082 353.227 329.216C353.247 329.493 353.257 329.782 353.257 330.082V327.306C353.257 325.774 352.089 323.785 350.661 322.864L266.624 268.889C265.187 267.967 263.119 267.813 262.002 268.523L260.943 269.212L260.903 269.234C260.833 269.289 260.653 269.401 260.453 269.523C260.453 269.523 260.443 269.523 260.443 269.534C260.322 269.611 260.203 269.755 260.123 269.932Z" fill="#4F64D9"/>
<path opacity="0.8" d="M260.123 269.932L260.482 270.165L349.312 327.205C349.312 327.205 349.372 327.049 349.502 326.938C349.582 326.883 349.682 326.827 349.802 326.749L350.441 326.338C350.68 326.183 350.95 326.005 351.23 325.827C351.599 325.594 351.939 325.638 352.239 325.927C352.279 325.949 352.309 325.983 352.338 326.027C352.438 326.138 352.528 326.283 352.608 326.438C352.698 326.605 352.778 326.794 352.838 326.994C352.908 327.194 352.968 327.416 353.018 327.638C353.068 327.883 353.108 328.127 353.148 328.394C353.177 328.538 353.187 328.694 353.197 328.849C353.207 328.971 353.217 329.082 353.227 329.216C353.247 329.493 353.257 329.782 353.257 330.082V327.306C353.257 325.774 352.089 323.785 350.661 322.864L266.624 268.889C265.187 267.967 263.119 267.813 262.002 268.523L260.943 269.212L260.903 269.234C260.833 269.289 260.653 269.401 260.453 269.523C260.453 269.523 260.443 269.523 260.443 269.534C260.322 269.611 260.203 269.755 260.123 269.932Z" fill="white"/>
<path d="M286.88 367.152C286.89 367.152 286.89 367.141 286.89 367.141L290.415 364.876L330.921 338.877L343.85 330.57C344.769 329.97 345.518 329.759 345.568 330.07C345.577 330.081 345.578 330.092 345.578 330.103V330.759C345.578 331.481 346.486 331.481 347.604 330.759C348.703 330.059 349.181 329.193 349.201 328.493V327.782C349.201 327.416 349.331 327.038 349.501 326.938C349.581 326.882 349.691 326.816 349.801 326.749C349.98 326.638 350.2 326.494 350.44 326.338C350.68 326.183 350.949 326.005 351.229 325.827C351.598 325.594 351.938 325.638 352.238 325.927C352.278 325.949 352.308 325.983 352.338 326.027C352.407 326.105 352.467 326.194 352.517 326.294C352.557 326.338 352.577 326.383 352.607 326.438C352.697 326.605 352.777 326.794 352.837 326.994C352.907 327.194 352.967 327.416 353.017 327.638C353.067 327.882 353.107 328.127 353.147 328.393C353.177 328.538 353.187 328.693 353.197 328.849C353.207 328.971 353.216 329.082 353.226 329.216C353.246 329.493 353.256 329.782 353.256 330.082V339.81H351.26V330.082C351.26 329.849 351.25 329.616 351.24 329.393L351.19 328.838C351.19 328.816 351.19 328.805 351.18 328.782C351 330.548 349.483 332.125 348.164 332.958C347.575 333.346 346.667 333.802 345.728 333.802C345.029 333.802 344.401 333.524 343.941 333.069L343.762 333.18C343.642 333.258 343.532 333.335 343.412 333.413L292.422 366.164L286.901 369.707C286.901 369.707 286.891 369.708 286.891 369.719C286.881 369.73 286.871 369.73 286.851 369.741C286.142 370.174 285.224 370.396 284.305 370.396V367.833C285.335 367.832 286.155 367.577 286.88 367.152Z" fill="#4F64D9"/>
<path opacity="0.6" d="M286.88 367.152C286.89 367.152 286.89 367.141 286.89 367.141L290.415 364.876L330.921 338.877L343.85 330.57C344.769 329.97 345.518 329.759 345.568 330.07C345.577 330.081 345.578 330.092 345.578 330.103V330.759C345.578 331.481 346.486 331.481 347.604 330.759C348.703 330.059 349.181 329.193 349.201 328.493V327.782C349.201 327.416 349.331 327.038 349.501 326.938C349.581 326.882 349.691 326.816 349.801 326.749C349.98 326.638 350.2 326.494 350.44 326.338C350.68 326.183 350.949 326.005 351.229 325.827C351.598 325.594 351.938 325.638 352.238 325.927C352.278 325.949 352.308 325.983 352.338 326.027C352.407 326.105 352.467 326.194 352.517 326.294C352.557 326.338 352.577 326.383 352.607 326.438C352.697 326.605 352.777 326.794 352.837 326.994C352.907 327.194 352.967 327.416 353.017 327.638C353.067 327.882 353.107 328.127 353.147 328.393C353.177 328.538 353.187 328.693 353.197 328.849C353.207 328.971 353.216 329.082 353.226 329.216C353.246 329.493 353.256 329.782 353.256 330.082V339.81H351.26V330.082C351.26 329.849 351.25 329.616 351.24 329.393L351.19 328.838C351.19 328.816 351.19 328.805 351.18 328.782C351 330.548 349.483 332.125 348.164 332.958C347.575 333.346 346.667 333.802 345.728 333.802C345.029 333.802 344.401 333.524 343.941 333.069L343.762 333.18C343.642 333.258 343.532 333.335 343.412 333.413L292.422 366.164L286.901 369.707C286.901 369.707 286.891 369.708 286.891 369.719C286.881 369.73 286.871 369.73 286.851 369.741C286.142 370.174 285.224 370.396 284.305 370.396V367.833C285.335 367.832 286.155 367.577 286.88 367.152Z" fill="white"/>
<path d="M196.613 311.47V314.08C196.613 314.68 196.952 315.268 197.642 315.723L197.682 315.745L276.197 366.165L281.709 369.708V369.72C281.709 369.72 281.719 369.708 281.719 369.72C282.438 370.164 283.366 370.397 284.305 370.397V367.832C283.366 367.832 282.428 367.61 281.709 367.143L278.204 364.889H278.194L197.681 313.169C196.918 312.676 196.616 312.1 196.613 311.47Z" fill="#4F64D9"/>
<path opacity="0.1" d="M196.613 311.47V314.08C196.613 314.68 196.952 315.268 197.642 315.723L197.682 315.745L276.197 366.165L281.709 369.708V369.72C281.709 369.72 281.719 369.708 281.719 369.72C282.438 370.164 283.366 370.397 284.305 370.397V367.832C283.366 367.832 282.428 367.61 281.709 367.143L278.204 364.889H278.194L197.681 313.169C196.918 312.676 196.616 312.1 196.613 311.47Z" fill="white"/>
<path d="M254.19 273.541C255.145 272.928 256.375 272.725 256.937 273.088C257.443 273.415 257.951 273.741 257.951 273.741C259.074 273.008 259.973 271.854 259.973 271.131V270.532C259.973 270.332 260.033 270.12 260.123 269.932C260.203 269.754 260.323 269.609 260.443 269.532C260.443 269.521 260.453 269.521 260.453 269.521C260.652 269.398 260.832 269.287 260.902 269.232L260.942 269.209L262.001 268.521C263.118 267.81 265.186 267.965 266.623 268.887L350.661 322.862C350.69 322.881 350.719 322.907 350.749 322.928L291.375 361.058C290.42 361.671 288.874 361.668 287.92 361.05L203.334 306.205L254.19 273.541Z" fill="#263238"/>
<path d="M296.129 355.553L293.879 354.115C293.879 354.115 295.17 353.659 295.766 353.968C296.362 354.278 296.129 355.553 296.129 355.553Z" fill="#4F64D9"/>
<path opacity="0.7" d="M296.129 355.553L293.879 354.115C293.879 354.115 295.17 353.659 295.766 353.968C296.362 354.278 296.129 355.553 296.129 355.553Z" fill="black"/>
<path d="M297.673 353.979C297.673 353.979 295.852 351.747 293.666 353.979C291.481 356.211 291.367 358.423 290.463 358.386C289.558 358.35 289.571 340.56 289.571 340.56L298.187 349.473L297.673 353.979Z" fill="#4F64D9"/>
<path opacity="0.7" d="M297.673 353.979C297.673 353.979 295.852 351.747 293.666 353.979C291.481 356.211 291.367 358.423 290.463 358.386C289.558 358.35 289.571 340.56 289.571 340.56L298.187 349.473L297.673 353.979Z" fill="black"/>
<path d="M207.392 289.281L207.25 289.19L208.635 288.3L268.085 250.121L354.716 312.485C356.148 313.405 356.402 314.731 355.282 315.447L353.256 316.743L297.683 352.448L297.289 352.128L207.392 289.281Z" fill="#4F64D9"/>
<path opacity="0.5" d="M207.392 289.281L207.25 289.19L208.635 288.3L268.085 250.121L354.716 312.485C356.148 313.405 356.402 314.731 355.282 315.447L353.256 316.743L297.683 352.448L297.289 352.128L207.392 289.281Z" fill="black"/>
<path d="M290.268 332.137L294.571 331.151V350.321C291.975 351.546 290.324 352.705 290.052 355.121L290.268 332.137Z" fill="#455A64"/>
<path d="M296.475 350.574L351.526 315.219C352.481 314.606 353.256 313.114 353.256 311.887V292.99L297.672 328.997C297.672 328.997 297.01 331.671 295.038 332.515C293.067 333.359 294.57 334.207 294.57 334.207V350.322C296.273 350.097 296.475 350.574 296.475 350.574Z" fill="#F0F0F0"/>
<path d="M291.399 331.482C291.968 331.115 292.417 331.093 292.417 331.438V332.038C292.417 332.704 293.326 332.671 294.454 331.949C295.571 331.226 296.493 330.106 296.493 329.441V328.839C296.493 328.494 297.259 327.729 298.207 327.118L208.637 270.032C208.088 270.385 207.25 270.927 207.25 270.927C207.019 271.18 206.91 271.607 206.91 271.753V272.353C206.91 273.019 206.001 274.14 204.883 274.862C203.754 275.585 202.846 275.618 202.846 274.951V274.351C202.846 274.007 202.397 274.029 201.828 274.396L291.399 331.482Z" fill="#4F64D9"/>
<path opacity="0.6" d="M291.399 331.482C291.968 331.115 292.417 331.093 292.417 331.438V332.038C292.417 332.704 293.326 332.671 294.454 331.949C295.571 331.226 296.493 330.106 296.493 329.441V328.839C296.493 328.494 297.259 327.729 298.207 327.118L208.637 270.032C208.088 270.385 207.25 270.927 207.25 270.927C207.019 271.18 206.91 271.607 206.91 271.753V272.353C206.91 273.019 206.001 274.14 204.883 274.862C203.754 275.585 202.846 275.618 202.846 274.951V274.351C202.846 274.007 202.397 274.029 201.828 274.396L291.399 331.482Z" fill="black"/>
<path d="M207.392 271.018L207.25 270.927L208.635 270.038L268.085 231.859L354.716 287.504C356.148 288.424 356.402 289.75 355.282 290.466L353.256 291.762L297.672 328.996L207.392 271.018Z" fill="#4F64D9"/>
<path opacity="0.5" d="M207.392 271.018L207.25 270.927L208.635 270.038L268.085 231.859L354.716 287.504C356.148 288.424 356.402 289.75 355.282 290.466L353.256 291.762L297.672 328.996L207.392 271.018Z" fill="black"/>
<path d="M202.829 273.767L292.329 331.244L289.195 333.97L199.985 276.678C200.372 275.658 200.772 275.121 201.179 274.826L202.829 273.767Z" fill="#4F64D9"/>
<path opacity="0.5" d="M202.829 273.767L292.329 331.244L289.195 333.97L199.985 276.678C200.372 275.658 200.772 275.121 201.179 274.826L202.829 273.767Z" fill="black"/>
<path d="M200.335 302.42C200.279 302.385 200.226 302.342 200.173 302.291C200.133 302.269 200.103 302.235 200.073 302.191C200.003 302.113 199.943 302.024 199.894 301.924C199.854 301.88 199.834 301.835 199.804 301.78C199.714 301.613 199.634 301.424 199.574 301.224C199.504 301.024 199.444 300.802 199.394 300.58C199.344 300.336 199.304 300.091 199.264 299.825C199.234 299.68 199.224 299.525 199.214 299.369C199.204 299.247 199.194 299.136 199.184 299.002C199.164 298.725 199.154 298.436 199.154 298.136V281.689C199.154 279.851 199.481 278.01 199.983 276.675L289.194 333.97L289.57 359.737L200.364 302.437L200.335 302.42Z" fill="#4F64D9"/>
<path opacity="0.7" d="M200.335 302.42C200.279 302.385 200.226 302.342 200.173 302.291C200.133 302.269 200.103 302.235 200.073 302.191C200.003 302.113 199.943 302.024 199.894 301.924C199.854 301.88 199.834 301.835 199.804 301.78C199.714 301.613 199.634 301.424 199.574 301.224C199.504 301.024 199.444 300.802 199.394 300.58C199.344 300.336 199.304 300.091 199.264 299.825C199.234 299.68 199.224 299.525 199.214 299.369C199.204 299.247 199.194 299.136 199.184 299.002C199.164 298.725 199.154 298.436 199.154 298.136V281.689C199.154 279.851 199.481 278.01 199.983 276.675L289.194 333.97L289.57 359.737L200.364 302.437L200.335 302.42Z" fill="black"/>
<path opacity="0.79" d="M289.194 333.971C289.194 333.971 218.938 297.394 212.543 294.042C208.324 291.831 206.25 296.475 207.249 301.285C208.122 305.487 211.851 309.817 211.851 309.817L200.364 302.438L200.334 302.42C200.278 302.385 200.225 302.342 200.172 302.291C200.132 302.269 200.102 302.235 200.072 302.191C200.002 302.113 199.942 302.024 199.893 301.924C199.853 301.88 199.833 301.835 199.803 301.78C199.713 301.613 199.633 301.424 199.573 301.224C199.503 301.024 199.443 300.802 199.393 300.58C199.343 300.336 199.303 300.091 199.263 299.825C199.233 299.68 199.223 299.525 199.213 299.369C199.203 299.247 199.193 299.136 199.183 299.002C199.163 298.725 199.153 298.436 199.153 298.136V281.689C199.153 279.851 199.48 278.01 199.982 276.675L289.194 333.971Z" fill="#263238"/>
<path d="M288.368 338.989H290.365C290.365 336.613 290.994 334.647 291.334 334.136C291.773 334.514 292.332 334.736 292.971 334.736C293.91 334.736 294.837 334.27 295.457 333.87C296.266 333.347 297.164 332.549 297.763 331.615C297.803 331.549 297.853 331.482 297.883 331.415C298.242 330.827 298.462 330.171 298.482 329.517L351.209 295.655L352.996 294.5L355.282 293.033C355.752 292.733 355.981 292.322 355.981 291.889V289.29C355.981 289.801 355.712 290.179 355.282 290.467L355.252 290.489L349.201 294.365L298.212 327.117C297.263 327.728 296.485 328.494 296.485 328.838V329.438C296.485 329.727 296.315 330.104 296.015 330.493C295.656 331.004 295.086 331.538 294.458 331.949C293.329 332.671 292.421 332.704 292.421 332.037V331.438C292.421 331.093 291.972 331.115 291.403 331.482L290.394 332.137C289.277 332.848 288.368 335.924 288.368 338.989Z" fill="#4F64D9"/>
<path d="M290.365 338.989V355.436C290.365 355.669 290.375 355.903 290.385 356.125L290.435 356.68C290.435 356.703 290.435 356.714 290.445 356.736C290.624 354.971 292.142 353.393 293.46 352.561C294.049 352.172 294.957 351.716 295.896 351.716C296.595 351.716 297.224 351.994 297.683 352.45L297.863 352.339C297.983 352.261 298.093 352.183 298.213 352.105L349.202 319.354C349.202 319.354 350.54 318.498 352.128 317.477C352.398 317.3 352.687 317.122 352.967 316.933C353.826 316.377 354.694 315.822 355.433 315.345C355.773 315.067 355.982 314.723 355.982 314.279V314.99V316.877C355.982 317.244 355.812 317.6 355.473 317.877C355.473 317.888 355.463 317.888 355.453 317.9C355.163 318.088 354.854 318.277 354.544 318.488C354.354 318.611 354.164 318.733 353.975 318.855C353.635 319.066 353.306 319.288 352.996 319.488C352.776 319.633 352.576 319.766 352.387 319.877C352.227 319.977 352.087 320.077 351.957 320.155C351.498 320.455 351.208 320.644 351.208 320.644L310.702 346.642L297.772 354.949C296.853 355.549 296.105 355.76 296.055 355.449C296.047 355.406 296.045 355.354 296.045 355.343V354.761C296.045 354.039 295.136 354.039 294.019 354.761C292.92 355.461 292.44 356.327 292.421 357.027V357.738C292.421 358.105 292.292 358.482 292.122 358.582C292.042 358.638 291.932 358.705 291.822 358.771C291.642 358.882 291.423 359.027 291.183 359.182C290.943 359.338 290.673 359.516 290.394 359.693C290.024 359.927 289.685 359.882 289.385 359.593C289.345 359.571 289.315 359.538 289.285 359.493C289.215 359.416 289.155 359.327 289.105 359.227V359.216C289.065 359.171 289.045 359.138 289.015 359.082C288.926 358.916 288.846 358.727 288.786 358.527C288.716 358.327 288.656 358.105 288.606 357.882C288.556 357.638 288.516 357.394 288.476 357.127C288.446 356.982 288.436 356.827 288.426 356.671C288.416 356.549 288.406 356.438 288.396 356.305C288.376 356.027 288.366 355.738 288.366 355.438V338.991H290.365V338.989Z" fill="#4F64D9"/>
<g opacity="0.6">
<path d="M288.368 338.989H290.365C290.365 336.613 290.994 334.647 291.334 334.136C291.773 334.514 292.332 334.736 292.971 334.736C293.91 334.736 294.837 334.27 295.457 333.87C296.266 333.347 297.164 332.549 297.763 331.615C297.803 331.549 297.853 331.482 297.883 331.415C298.242 330.827 298.462 330.171 298.482 329.517L351.209 295.655L352.996 294.5L355.282 293.033C355.752 292.733 355.981 292.322 355.981 291.889V289.29C355.981 289.801 355.712 290.179 355.282 290.467L355.252 290.489L349.201 294.365L298.212 327.117C297.263 327.728 296.485 328.494 296.485 328.838V329.438C296.485 329.727 296.315 330.104 296.015 330.493C295.656 331.004 295.086 331.538 294.458 331.949C293.329 332.671 292.421 332.704 292.421 332.037V331.438C292.421 331.093 291.972 331.115 291.403 331.482L290.394 332.137C289.277 332.848 288.368 335.924 288.368 338.989Z" fill="black"/>
<path d="M290.365 338.989V355.436C290.365 355.669 290.375 355.903 290.385 356.125L290.435 356.68C290.435 356.703 290.435 356.714 290.445 356.736C290.624 354.971 292.142 353.393 293.46 352.561C294.049 352.172 294.957 351.716 295.896 351.716C296.595 351.716 297.224 351.994 297.683 352.45L297.863 352.339C297.983 352.261 298.093 352.183 298.213 352.105L349.202 319.354C349.202 319.354 350.54 318.498 352.128 317.477C352.398 317.3 352.687 317.122 352.967 316.933C353.826 316.377 354.694 315.822 355.433 315.345C355.773 315.067 355.982 314.723 355.982 314.279V314.99V316.877C355.982 317.244 355.812 317.6 355.473 317.877C355.473 317.888 355.463 317.888 355.453 317.9C355.163 318.088 354.854 318.277 354.544 318.488C354.354 318.611 354.164 318.733 353.975 318.855C353.635 319.066 353.306 319.288 352.996 319.488C352.776 319.633 352.576 319.766 352.387 319.877C352.227 319.977 352.087 320.077 351.957 320.155C351.498 320.455 351.208 320.644 351.208 320.644L310.702 346.642L297.772 354.949C296.853 355.549 296.105 355.76 296.055 355.449C296.047 355.406 296.045 355.354 296.045 355.343V354.761C296.045 354.039 295.136 354.039 294.019 354.761C292.92 355.461 292.44 356.327 292.421 357.027V357.738C292.421 358.105 292.292 358.482 292.122 358.582C292.042 358.638 291.932 358.705 291.822 358.771C291.642 358.882 291.423 359.027 291.183 359.182C290.943 359.338 290.673 359.516 290.394 359.693C290.024 359.927 289.685 359.882 289.385 359.593C289.345 359.571 289.315 359.538 289.285 359.493C289.215 359.416 289.155 359.327 289.105 359.227V359.216C289.065 359.171 289.045 359.138 289.015 359.082C288.926 358.916 288.846 358.727 288.786 358.527C288.716 358.327 288.656 358.105 288.606 357.882C288.556 357.638 288.516 357.394 288.476 357.127C288.446 356.982 288.436 356.827 288.426 356.671C288.416 356.549 288.406 356.438 288.396 356.305C288.376 356.027 288.366 355.738 288.366 355.438V338.991H290.365V338.989Z" fill="black"/>
</g>
<path d="M199.987 276.673L284.773 331.125L348.863 289.967C349.822 289.356 349.822 288.357 348.863 287.746L264.965 233.86L208.644 270.033H208.634C208.085 270.388 207.246 270.932 207.246 270.932C207.016 271.177 206.906 271.61 206.906 271.755V272.355C206.906 273.021 205.997 274.142 204.879 274.864C204.819 274.909 204.759 274.931 204.7 274.964L202.833 273.765L201.944 274.331C201.904 274.353 201.874 274.364 201.824 274.398L201.834 274.409L201.175 274.831C200.776 275.119 200.367 275.662 199.987 276.673Z" fill="#263238"/>
<path d="M344.091 290.379L341.54 288.864L343.863 288.246C344.336 288.845 344.366 289.569 344.091 290.379Z" fill="#E0E0E0"/>
<path opacity="0.5" d="M344.091 290.379L341.54 288.864L343.863 288.246C344.336 288.845 344.366 289.569 344.091 290.379Z" fill="#E0E0E0"/>
<path d="M276.511 328.236C277.944 329.156 280.267 329.156 281.7 328.236L339.94 290.832L252.757 229.529L250.721 228.218L192.482 270.929C191.055 271.852 191.055 273.35 192.482 274.261L276.511 328.236Z" fill="#4F64D9"/>
<path d="M298.38 252.271L342.379 285.44L318.689 265.274L331.837 256.83L347.131 266.658C347.131 266.658 347.131 282.74 347.131 284.227C347.131 285.714 345.633 287.831 345.088 287.482C345.088 287.482 343.89 287.755 342.164 288.637C340.437 289.52 337.943 292.11 337.943 292.11L291.275 256.833L298.38 252.271Z" fill="#4F64D9"/>
<path opacity="0.2" d="M298.38 252.271L342.379 285.44L318.689 265.274L331.837 256.83L347.131 266.658C347.131 266.658 347.131 282.74 347.131 284.227C347.131 285.714 345.633 287.831 345.088 287.482C345.088 287.482 343.89 287.755 342.164 288.637C340.437 289.52 337.943 292.11 337.943 292.11L291.275 256.833L298.38 252.271Z" fill="black"/>
<path d="M279.106 306.322V326.6C279.735 326.6 280.363 326.455 280.833 326.144L287.222 322.047L335.885 290.795L335.895 269.851L279.106 306.322Z" fill="white"/>
<path d="M193.94 253.502V270.338C193.94 271.56 194.719 273.059 195.667 273.67L270.998 322.047L277.378 326.144C277.847 326.455 278.476 326.6 279.105 326.6V307.91L193.94 253.502Z" fill="#F0F0F0"/>
<path d="M335.885 290.795C335.905 290.062 336.185 289.342 336.615 288.697C337.214 287.764 338.112 286.965 338.921 286.443C339.54 286.043 340.468 285.576 341.407 285.576C342.046 285.576 342.605 285.629 343.044 286.007V265.26L335.895 269.851L335.885 290.795Z" fill="#455A64"/>
<path d="M338.741 286.57C337.981 287.091 337.17 287.831 336.615 288.696C336.185 289.341 335.905 290.061 335.885 290.794L335.895 270.583H338.74L338.741 286.57Z" fill="#F5F5F5"/>
<path d="M252.757 211.256L339.94 267.251C339.94 267.251 339.94 267.829 339.94 268.55C339.94 269.272 340.849 269.539 341.966 268.817C343.095 268.094 344.003 267.195 344.003 265.951L344.113 264.718L255.283 207.678L254.924 207.445C254.834 207.634 254.774 207.845 254.774 208.045V208.645C254.774 209.368 253.875 210.522 252.757 211.256Z" fill="#4F64D9"/>
<path opacity="0.2" d="M252.757 211.256L339.94 267.251C339.94 267.251 339.94 267.829 339.94 268.55C339.94 269.272 340.849 269.539 341.966 268.817C343.095 268.094 344.003 267.195 344.003 265.951L344.113 264.718L255.283 207.678L254.924 207.445C254.834 207.634 254.774 207.845 254.774 208.045V208.645C254.774 209.368 253.875 210.522 252.757 211.256Z" fill="black"/>
<path d="M281.7 304.655L338.649 268.08C339.372 267.658 340.033 267.32 340.312 267.482L339.94 267.251L252.757 211.256C252.757 211.256 252.245 210.929 251.738 210.602C251.176 210.24 249.947 210.443 248.992 211.056L192.483 247.35C191.056 248.272 191.056 249.771 192.483 250.682L276.513 304.656C277.944 305.576 280.267 305.577 281.7 304.655Z" fill="#4F64D9"/>
<path d="M254.924 207.447L255.283 207.68L344.113 264.72C344.113 264.72 344.173 264.564 344.303 264.453C344.383 264.398 344.482 264.342 344.602 264.264L345.242 263.853C345.481 263.698 345.751 263.52 346.031 263.342C346.4 263.109 346.74 263.153 347.039 263.442C347.079 263.465 347.109 263.498 347.139 263.542C347.239 263.653 347.329 263.798 347.409 263.953C347.499 264.12 347.579 264.309 347.639 264.509C347.709 264.709 347.769 264.931 347.818 265.153C347.868 265.398 347.908 265.642 347.948 265.909C347.978 266.053 347.988 266.209 347.998 266.364C348.008 266.486 348.018 266.598 348.028 266.731C348.048 267.009 348.058 267.298 348.058 267.597V264.821C348.058 263.289 346.89 261.3 345.462 260.379L261.425 206.405C259.988 205.482 257.92 205.328 256.802 206.038L255.744 206.727L255.704 206.749C255.634 206.805 255.454 206.916 255.254 207.038C255.254 207.038 255.244 207.038 255.244 207.049C255.123 207.125 255.004 207.269 254.924 207.447Z" fill="#4F64D9"/>
<path d="M281.702 328.233L285.216 325.967L337.943 292.106C337.963 291.373 338.233 290.652 338.662 290.007C339.262 289.074 340.159 288.275 340.969 287.753C341.588 287.353 342.516 286.886 343.455 286.886C344.094 286.886 344.652 287.109 345.092 287.486C345.431 286.975 346.061 285.01 346.061 282.633H348.057C348.057 285.699 347.148 288.775 346.031 289.486L345.022 290.142C344.453 290.508 344.003 290.531 344.003 290.186V289.586C344.003 288.92 343.094 288.953 341.966 289.675C340.848 290.397 339.94 291.518 339.94 292.185V292.785C339.94 293.129 339.161 293.896 338.213 294.506L287.223 327.257L281.702 330.8C281.702 330.8 281.692 330.8 281.692 330.811C280.972 331.256 280.044 331.489 279.106 331.489V328.924C280.044 328.921 280.982 328.698 281.702 328.233Z" fill="#4F64D9"/>
<path opacity="0.4" d="M281.702 328.233L285.216 325.967L337.943 292.106C337.963 291.373 338.233 290.652 338.662 290.007C339.262 289.074 340.159 288.275 340.969 287.753C341.588 287.353 342.516 286.886 343.455 286.886C344.094 286.886 344.652 287.109 345.092 287.486C345.431 286.975 346.061 285.01 346.061 282.633H348.057C348.057 285.699 347.148 288.775 346.031 289.486L345.022 290.142C344.453 290.508 344.003 290.531 344.003 290.186V289.586C344.003 288.92 343.094 288.953 341.966 289.675C340.848 290.397 339.94 291.518 339.94 292.185V292.785C339.94 293.129 339.161 293.896 338.213 294.506L287.223 327.257L281.702 330.8C281.702 330.8 281.692 330.8 281.692 330.811C280.972 331.256 280.044 331.489 279.106 331.489V328.924C280.044 328.921 280.982 328.698 281.702 328.233Z" fill="black"/>
<path d="M281.682 304.668C281.682 304.668 281.692 304.656 281.702 304.656L285.216 302.391L325.722 276.393L338.652 268.085C339.571 267.485 340.319 267.274 340.369 267.585C340.379 267.596 340.379 267.608 340.379 267.619V268.274C340.379 268.996 341.288 268.996 342.406 268.274C343.505 267.574 343.983 266.709 344.003 266.009V265.298C344.003 264.931 344.133 264.553 344.303 264.453C344.383 264.398 344.492 264.331 344.602 264.265C344.782 264.153 345.002 264.009 345.242 263.853C345.481 263.698 345.751 263.52 346.031 263.342C346.4 263.109 346.74 263.154 347.039 263.442C347.079 263.465 347.109 263.498 347.139 263.542C347.209 263.62 347.269 263.709 347.319 263.809C347.359 263.853 347.379 263.898 347.409 263.953C347.499 264.12 347.579 264.309 347.639 264.509C347.709 264.709 347.769 264.931 347.818 265.153C347.868 265.398 347.908 265.642 347.948 265.909C347.978 266.053 347.988 266.209 347.998 266.364C348.008 266.486 348.018 266.598 348.028 266.731C348.048 267.009 348.058 267.298 348.058 267.597V282.633H346.061V267.597C346.061 267.364 346.051 267.131 346.041 266.909L345.992 266.353C345.992 266.331 345.992 266.32 345.982 266.298C345.802 268.063 344.285 269.641 342.966 270.473C342.377 270.862 341.469 271.317 340.53 271.317C339.831 271.317 339.202 271.04 338.743 270.584L338.563 270.695C338.443 270.773 338.333 270.851 338.214 270.928L287.224 303.68L281.702 307.223C281.702 307.223 281.692 307.223 281.692 307.234C281.682 307.245 281.672 307.245 281.652 307.256C280.943 307.689 280.025 307.912 279.106 307.912V305.348C280.137 305.346 280.957 305.092 281.682 304.668Z" fill="#4F64D9"/>
<path opacity="0.4" d="M281.682 304.668C281.682 304.668 281.692 304.656 281.702 304.656L285.216 302.391L325.722 276.393L338.652 268.085C339.571 267.485 340.319 267.274 340.369 267.585C340.379 267.596 340.379 267.608 340.379 267.619V268.274C340.379 268.996 341.288 268.996 342.406 268.274C343.505 267.574 343.983 266.709 344.003 266.009V265.298C344.003 264.931 344.133 264.553 344.303 264.453C344.383 264.398 344.492 264.331 344.602 264.265C344.782 264.153 345.002 264.009 345.242 263.853C345.481 263.698 345.751 263.52 346.031 263.342C346.4 263.109 346.74 263.154 347.039 263.442C347.079 263.465 347.109 263.498 347.139 263.542C347.209 263.62 347.269 263.709 347.319 263.809C347.359 263.853 347.379 263.898 347.409 263.953C347.499 264.12 347.579 264.309 347.639 264.509C347.709 264.709 347.769 264.931 347.818 265.153C347.868 265.398 347.908 265.642 347.948 265.909C347.978 266.053 347.988 266.209 347.998 266.364C348.008 266.486 348.018 266.598 348.028 266.731C348.048 267.009 348.058 267.298 348.058 267.597V282.633H346.061V267.597C346.061 267.364 346.051 267.131 346.041 266.909L345.992 266.353C345.992 266.331 345.992 266.32 345.982 266.298C345.802 268.063 344.285 269.641 342.966 270.473C342.377 270.862 341.469 271.317 340.53 271.317C339.831 271.317 339.202 271.04 338.743 270.584L338.563 270.695C338.443 270.773 338.333 270.851 338.214 270.928L287.224 303.68L281.702 307.223C281.702 307.223 281.692 307.223 281.692 307.234C281.682 307.245 281.672 307.245 281.652 307.256C280.943 307.689 280.025 307.912 279.106 307.912V305.348C280.137 305.346 280.957 305.092 281.682 304.668Z" fill="black"/>
<path d="M191.414 248.984V251.594C191.414 252.194 191.753 252.783 192.442 253.237L192.482 253.26L270.998 303.68L276.51 307.223V307.234C276.51 307.234 276.52 307.223 276.52 307.234C277.239 307.678 278.167 307.912 279.106 307.912V305.346C278.167 305.346 277.229 305.124 276.51 304.657L273.005 302.403H272.995L192.481 250.683C191.72 250.19 191.416 249.614 191.414 248.984Z" fill="#4F64D9"/>
<path opacity="0.2" d="M191.414 248.984V251.594C191.414 252.194 191.753 252.783 192.442 253.237L192.482 253.26L270.998 303.68L276.51 307.223V307.234C276.51 307.234 276.52 307.223 276.52 307.234C277.239 307.678 278.167 307.912 279.106 307.912V305.346C278.167 305.346 277.229 305.124 276.51 304.657L273.005 302.403H272.995L192.481 250.683C191.72 250.19 191.416 249.614 191.414 248.984Z" fill="black"/>
<path d="M191.414 272.559V275.168C191.414 275.768 191.753 276.357 192.442 276.812L192.482 276.834L270.998 327.254L276.51 330.797V330.808C276.51 330.808 276.52 330.797 276.52 330.808C277.239 331.253 278.167 331.486 279.106 331.486V328.921C278.167 328.921 277.229 328.698 276.51 328.232L273.005 325.978H272.995L192.481 274.257C191.72 273.766 191.416 273.189 191.414 272.559Z" fill="#4F64D9"/>
<path opacity="0.2" d="M191.414 272.559V275.168C191.414 275.768 191.753 276.357 192.442 276.812L192.482 276.834L270.998 327.254L276.51 330.797V330.808C276.51 330.808 276.52 330.797 276.52 330.808C277.239 331.253 278.167 331.486 279.106 331.486V328.921C278.167 328.921 277.229 328.698 276.51 328.232L273.005 325.978H272.995L192.481 274.257C191.72 273.766 191.416 273.189 191.414 272.559Z" fill="black"/>
<path d="M227.678 180.919L219.349 197.446L231.496 204.636L240.337 189.995L227.678 180.919Z" fill="#FFA8A7"/>
<path d="M257.256 143.705C252.626 142.825 245.611 142.591 241.052 151.291C236.492 159.991 226.672 181.449 226.672 181.449C226.672 181.449 232.413 189.712 240.717 191.213L254.293 167.254L257.256 143.705Z" fill="#4F64D9"/>
<path d="M246.316 346.065H235.947V365.81H246.316V346.065Z" fill="#FFA8A7"/>
<path d="M216.29 341.256L205.927 341.653L205.408 320.758L215.771 320.362L216.29 341.256Z" fill="#FFA8A7"/>
<path d="M235.947 360.116V358.467C234.955 358.948 232.65 368.731 228.536 372.904C225.266 376.222 220.804 380.055 219.67 383.755C218.489 387.602 225.883 389.726 228.939 389.124C232.489 388.425 238.642 385.643 240.188 383.066C241.732 380.488 242.456 376.686 243.711 374.796C244.966 372.907 247.859 370.797 248.538 368.611C248.911 367.41 248.468 364.779 247.944 362.556C247.464 360.516 246.942 358.274 246.317 358.465C246.315 358.714 246.317 359.723 246.317 359.723C245.564 360.651 243.481 361.572 241.133 361.672C239.615 361.739 235.935 361.403 235.947 360.116Z" fill="#263238"/>
<path d="M205.817 338.097C205.279 338.118 204.84 338.962 203.653 340.392C202.218 342.12 199.871 343.984 197.554 345.274C193.672 347.435 186.124 350.761 182.707 352.473C180.572 353.542 180.673 356.41 182.878 358.042C185.085 359.674 190.411 360.85 196.806 359.259C200.29 358.392 204.826 354.813 207.696 355.006C210.566 355.199 215.938 355.153 218.057 353.528C220.176 351.904 219.328 348.434 218.729 345.452C218.075 342.198 217.14 337.22 216.171 337.442L216.203 338.465C214.956 340.565 208.61 341.422 205.872 339.877L205.817 338.097Z" fill="#263238"/>
<path d="M288.082 225.987C290.354 243.811 287.293 247.233 272.063 264.306C263.874 273.486 250.676 286.954 250.676 286.954C250.676 286.954 250.867 292.645 250.975 305.411C251.069 316.653 246.844 353.239 246.844 353.239C246.844 353.239 239.965 356.458 235.242 353.117C235.242 353.117 233.109 325.899 231.959 311.72C230.397 292.489 229.578 282.856 230.461 278.717C231.239 275.069 246.742 253.303 250.317 247.193L217.378 268.478C217.378 268.478 218.501 277.799 218.337 284.748C217.975 300.009 216.291 330.489 216.291 330.489C216.291 330.489 208.748 334.243 205.007 331.007C205.007 331.007 195.517 264.348 195.517 258.877C195.517 250.564 227.974 225.749 234.117 219.97C237.623 216.672 241.533 213.15 241.533 213.15L288.082 225.987Z" fill="#455A64"/>
<path d="M250.317 247.193C250.317 247.193 245.033 242.848 242.791 235.252C242.791 235.252 243.073 240.371 243.964 244.335C244.855 248.298 217.379 268.479 217.379 268.479L250.317 247.193Z" fill="#37474F"/>
<path d="M268.63 111.83C270.485 103.025 265.572 94.2148 257.657 92.1511C249.742 90.0875 241.821 95.552 239.966 104.356C238.111 113.161 243.023 121.971 250.939 124.035C258.854 126.098 266.775 120.634 268.63 111.83Z" fill="#263238"/>
<path d="M285.221 153.622C285.221 153.622 288.861 156.932 288.861 167.395V189.993L288.341 227.988C281.07 236.787 248.365 233.45 240.3 214.264C240.3 214.264 240.364 174.15 240.364 165.166C240.364 156.182 244.865 144.505 257.255 143.704L273.253 147.844L285.221 153.622Z" fill="#263238"/>
<path d="M279.738 119.725C279.738 119.725 277.352 132.191 276.396 134.239C275.439 136.287 273.463 136.869 273.463 136.869L273.63 128.1L279.738 119.725Z" fill="#263238"/>
<path d="M276.744 101.868C276.744 101.868 279.313 101.378 281.316 103.655C283.279 105.888 282.183 112.879 279.738 119.725L275.245 120.299L276.744 101.868Z" fill="#263238"/>
<path d="M273.896 120.303C274.797 120.902 276.083 118.977 277.194 117.683C278.305 116.39 281.932 114.623 283.742 118.864C285.585 123.186 282.145 128.896 279.289 129.893C274.368 131.611 273.629 128.1 273.629 128.1L273.253 147.845C269.012 153.115 254.509 151.858 257.243 147.323L257.256 141.313C257.256 141.313 252.797 142.066 250.622 141.692C247.003 141.07 244.727 137.893 243.629 133.536C241.866 126.537 241.197 120.886 242.692 107.122C244.332 92.0342 260.107 91.8777 268.626 97.8417C277.145 103.806 273.896 120.303 273.896 120.303Z" fill="#FFA8A7"/>
<path d="M261.362 123.756H260.587C257.818 123.756 255.567 121.252 255.567 118.171C255.567 115.092 257.818 112.587 260.587 112.587H261.362C264.131 112.587 266.384 115.092 266.384 118.171C266.384 121.25 264.132 123.756 261.362 123.756ZM260.587 113.528C258.286 113.528 256.413 115.611 256.413 118.171C256.413 120.731 258.286 122.814 260.587 122.814H261.362C263.664 122.814 265.537 120.731 265.537 118.171C265.537 115.611 263.664 113.528 261.362 113.528H260.587Z" fill="#263238"/>
<path d="M246.053 123.756H245.278C242.51 123.756 240.258 121.252 240.258 118.171C240.258 115.092 242.51 112.587 245.278 112.587H246.053C248.822 112.587 251.075 115.092 251.075 118.171C251.075 121.25 248.822 123.756 246.053 123.756ZM245.278 113.528C242.977 113.528 241.105 115.611 241.105 118.171C241.105 120.731 242.978 122.814 245.278 122.814H246.053C248.355 122.814 250.228 120.731 250.228 118.171C250.228 115.611 248.355 113.528 246.053 113.528H245.278Z" fill="#263238"/>
<path d="M255.628 117.069C255.163 116.221 254.123 115.631 252.976 115.566C251.988 115.51 251.116 115.873 250.662 116.538L249.987 115.968C250.62 115.041 251.723 114.551 253.019 114.626C254.459 114.708 255.735 115.456 256.351 116.579L255.628 117.069Z" fill="#263238"/>
<path d="M276.6 117.025H265.919V117.966H276.6V117.025Z" fill="#263238"/>
<path d="M273.897 121.989C274.35 121.999 276.073 118.818 277.194 117.683C278.748 116.111 276.744 101.868 276.744 101.868C276.744 101.868 278.238 98.3275 275.245 94.6633C273.116 92.0575 269.558 91.7676 263.484 90.7061C260.296 90.1486 255.465 89.1567 252.282 88.4982C248.482 87.7124 245.336 86.8802 242.653 89.4739C240.565 91.4929 239.666 95.0602 240.79 97.872C241.053 98.5316 241.436 99.1275 241.87 99.6638C242.639 100.615 243.509 101.365 244.604 101.76C244.604 101.76 246.262 103.395 252.026 104.175C257.791 104.956 266.771 104.025 267.997 103.839C269.669 103.585 270.026 105.386 270.927 110.31C271.717 114.632 272.374 121.956 273.897 121.989Z" fill="#382626"/>
<path d="M276.735 102.975L282.182 99.7213C281.409 97.9852 279.562 97.3054 278.059 98.2043C276.554 99.1032 275.961 101.238 276.735 102.975Z" fill="#263238"/>
<path d="M257.256 141.314C257.256 141.314 265.335 139.504 268.16 137.834C270.05 136.716 271.607 134.778 272.064 133.537C272.064 133.537 271.535 136.204 269.846 138.605C267.78 141.542 257.256 143.706 257.256 143.706V141.314Z" fill="#F28F8F"/>
<path d="M259.198 118.056C259.198 119.089 259.922 119.924 260.817 119.922C261.711 119.919 262.436 119.08 262.436 118.047C262.436 117.014 261.711 116.178 260.817 116.18C259.922 116.183 259.198 117.024 259.198 118.056Z" fill="#263238"/>
<path d="M261.797 110.601L265.26 112.727C265.772 111.62 265.409 110.247 264.453 109.66C263.497 109.073 262.308 109.494 261.797 110.601Z" fill="#263238"/>
<path d="M257.987 130.496L254.292 132.038C254.658 133.217 255.782 133.827 256.802 133.401C257.823 132.975 258.353 131.675 257.987 130.496Z" fill="#F28F8F"/>
<path d="M244.346 112.186L247.504 109.48C246.86 108.474 245.631 108.265 244.759 109.011C243.887 109.759 243.702 111.18 244.346 112.186Z" fill="#263238"/>
<path d="M245.733 117.544C245.733 118.577 246.458 119.412 247.352 119.409C248.245 119.406 248.971 118.567 248.971 117.534C248.971 116.5 248.246 115.665 247.352 115.667C246.458 115.67 245.733 116.511 245.733 117.544Z" fill="#263238"/>
<path d="M253.734 116.098L253.546 127.019L247.743 125.597L253.734 116.098Z" fill="#F28F8F"/>
<path d="M243.812 206.865V207.906C243.812 208.957 243.308 209.931 242.493 210.456L217.276 226.598C216.868 226.86 216.411 226.988 215.952 226.988C215.498 226.988 215.04 226.86 214.633 226.598L168.374 196.891C167.555 196.366 167.05 195.393 167.05 194.342V193.626L215.953 225.032L243.812 206.865Z" fill="#4F64D9"/>
<path opacity="0.6" d="M243.812 206.865V207.906C243.812 208.957 243.308 209.931 242.493 210.456L217.276 226.598C216.868 226.86 216.411 226.988 215.952 226.988C215.498 226.988 215.04 226.86 214.633 226.598L168.374 196.891C167.555 196.366 167.05 195.393 167.05 194.342V193.626L215.953 225.032L243.812 206.865Z" fill="black"/>
<path d="M167.048 193.625L194.477 176.012C194.965 175.699 195.566 175.699 196.053 176.012L243.637 206.574C243.871 206.725 243.871 207.099 243.637 207.249L215.951 225.032L167.048 193.625Z" fill="#4F64D9"/>
<path opacity="0.5" d="M167.048 193.625L194.477 176.012C194.965 175.699 195.566 175.699 196.053 176.012L243.637 206.574C243.871 206.725 243.871 207.099 243.637 207.249L215.951 225.032L167.048 193.625Z" fill="black"/>
<path d="M216.204 222.442L230.998 212.951L187.741 185.17L172.87 194.612L216.204 222.442Z" fill="#263238"/>
<path d="M223.475 196.041L223.203 196.216L215.951 200.872L203.057 192.59L202.788 192.42L210.312 187.589L223.475 196.041Z" fill="#263238"/>
<path d="M223.203 196.216L215.951 200.872L203.057 192.59L210.312 187.934L223.203 196.216Z" fill="#263238"/>
<path opacity="0.7" d="M215.951 225.031V226.988C215.497 226.988 215.039 226.86 214.632 226.598L168.373 196.891C167.554 196.366 167.049 195.393 167.049 194.342V193.626L215.951 225.031Z" fill="black"/>
<path d="M215.206 225.465C214.331 225.841 213.335 225.769 212.506 225.233L166.451 195.655C165.641 195.135 165.085 194.244 164.927 193.219L159.885 159.774C159.857 159.584 159.843 159.393 159.843 159.202C159.843 158.27 160.177 157.379 160.77 156.725L208.631 187.466C209.229 187.853 209.641 188.511 209.756 189.269L215.206 225.465Z" fill="#4F64D9"/>
<path opacity="0.5" d="M215.206 225.465C214.331 225.841 213.335 225.769 212.506 225.233L166.451 195.655C165.641 195.135 165.085 194.244 164.927 193.219L159.885 159.774C159.857 159.584 159.843 159.393 159.843 159.202C159.843 158.27 160.177 157.379 160.77 156.725L208.631 187.466C209.229 187.853 209.641 188.511 209.756 189.269L215.206 225.465Z" fill="black"/>
<path d="M215.951 225.033L215.636 225.234C215.497 225.322 215.354 225.399 215.206 225.466L209.756 189.27C209.641 188.512 209.229 187.854 208.631 187.467L160.77 156.726C160.955 156.52 161.173 156.34 161.409 156.185L209.368 186.983C209.965 187.369 210.377 188.029 210.493 188.786L215.951 225.033Z" fill="#E0E0E0"/>
<path d="M189.267 194.591C188.929 192.351 186.851 189.377 184.625 187.948C182.399 186.519 180.868 187.175 181.206 189.414C181.544 191.654 183.622 194.628 185.848 196.057C188.074 197.486 189.605 196.83 189.267 194.591Z" fill="#4F64D9"/>
<path d="M198.701 216.361C198.699 216.322 198.622 214.523 197.926 212.071C197.222 209.591 195.11 200.065 190.3 198.63C189.73 198.459 189.117 198.393 188.541 198.568C187.203 198.973 186.593 200.515 186.332 201.897C185.947 203.925 186.197 206.015 186.301 208.06C185.563 207.122 184.694 206.314 183.736 205.669C182.826 205.057 181.881 204.419 180.785 204.496C180.489 204.516 180.155 204.608 180.013 204.898C179.837 205.257 180.052 205.695 180.286 206.01C180.767 206.658 181.356 207.2 181.832 207.853C182.231 208.399 182.545 209.013 182.88 209.61C183.49 210.697 184.171 211.73 184.851 212.764C186.241 214.87 187.731 216.884 189.698 218.343C190.917 219.246 193.824 221.125 196.964 221.562C200.475 222.05 203.89 221.991 206.109 221.125L198.701 216.361Z" fill="#FFA8A7"/>
<path d="M284.261 153.911C281.014 152.059 276.277 159.418 277.785 167.115C279.294 174.811 286.72 201.864 286.72 201.864C286.72 201.864 253.168 205.205 250.318 205.592C248.332 205.861 246.106 204.738 244.266 204.059C241.754 203.133 239.228 202.488 236.756 201.472C236.312 201.29 235.85 201.104 235.38 201.155C234.91 201.205 234.43 201.567 234.373 202.088C234.338 202.4 234.456 202.706 234.58 202.988C235.368 204.777 236.571 206.337 238.04 207.475C238.724 208.004 239.48 208.45 240.077 209.107C240.472 209.543 241.328 210.742 241.016 211.401L227.681 219.937C227.681 219.937 230.755 222.908 241.868 219.444C249.543 217.051 253.548 214.826 253.548 214.826C253.548 214.826 293.088 216.655 300.227 214.244C302.752 213.392 303.665 211.403 301.959 202.348C299.978 191.831 294.377 172.705 293.102 167.688C290.314 156.726 289.63 156.974 284.261 153.911Z" fill="#FFA8A7"/>
<path d="M282.59 152.351C282.59 152.351 287.942 154.023 290.249 157.378C292.473 160.613 301.49 193.403 301.49 193.403C301.49 193.403 294.572 200.519 284.55 198.465C284.55 198.465 277.39 175.887 276.63 169.861C275.244 160.513 279.347 153.159 282.59 152.351Z" fill="#4F64D9"/>
<path d="M253.674 174.242C253.244 171.718 254.662 170.359 256.842 171.206C259.022 172.054 261.14 174.786 261.57 177.311C262.001 179.834 254.105 176.766 253.674 174.242Z" fill="#4F64D9"/>
<path d="M268.65 182.108L262.208 177.557C262.539 179.499 260.186 179.228 258.071 178.406C255.956 177.584 253.367 175.936 253.037 173.995L247.423 173.915C246.909 173.908 246.897 174.658 247.396 175.279C248.786 177.007 252.013 180.06 258.804 182.698C265.604 185.34 268.208 184.521 269.185 183.696C269.533 183.401 269.241 182.525 268.65 182.108Z" fill="#4F64D9"/>
</svg>
