<?xml version="1.0" encoding="UTF-8"?>
<svg version="1.1" xmlns="http://www.w3.org/2000/svg" width="489" height="61">
<path d="M0 0 C2.40801405 0.03747692 4.80686987 0.00035909 7.21459961 -0.04443359 C19.94772048 -0.10178887 19.94772048 -0.10178887 24.51733398 3.40478516 C28.59714945 8.78561986 28.05288138 16.12767355 27.94580078 22.58251953 C27.91580506 24.90999216 27.96590909 27.22644884 28.02319336 29.55322266 C28.12028986 41.87834269 28.12028986 41.87834269 23.95483398 46.42431641 C18.2257962 50.26578902 11.30420892 49.92108272 4.66015625 49.77026367 C2.41516284 49.72508541 0.17842396 49.74957811 -2.06665039 49.78173828 C-13.86928444 49.79923803 -13.86928444 49.79923803 -18.49829102 46.95166016 C-22.94025324 42.04104719 -22.01081053 34.11820998 -21.87939453 27.89086914 C-21.83438455 25.4834432 -21.85863141 23.08376332 -21.89086914 20.67626953 C-21.90845503 7.99229954 -21.90845503 7.99229954 -19.06079102 3.36962891 C-14.13470202 -0.99259975 -6.2041825 -0.11511481 0 0 Z M-14.02172852 10.91259766 C-14.06253634 12.91218129 -14.06427208 14.9130502 -14.02172852 16.91259766 C-12.04172852 16.91259766 -10.06172852 16.91259766 -8.02172852 16.91259766 C-8.02172852 16.25259766 -8.02172852 15.59259766 -8.02172852 14.91259766 C-2.41172852 15.24259766 3.19827148 15.57259766 8.97827148 15.91259766 C8.97827148 17.89259766 8.97827148 19.87259766 8.97827148 21.91259766 C6.71746618 24.17340296 1.23889691 23.23896032 -1.82250977 23.33837891 C-5.55912105 24.00905273 -6.7647924 24.9124574 -9.02172852 27.91259766 C-9.60361355 31.40390788 -9.56718017 33.10977472 -7.56469727 36.05712891 C-3.81704905 38.79158805 -0.36627025 38.54669575 4.16577148 38.60009766 C12.88874446 38.82307063 12.88874446 38.82307063 13.97827148 39.91259766 C16.47827148 40.07926432 16.47827148 40.07926432 18.97827148 39.91259766 C20.26149696 38.85300996 20.26149696 38.85300996 20.10327148 36.41259766 C20.26149696 33.97218535 20.26149696 33.97218535 18.97827148 32.91259766 C16.47827148 32.74593099 16.47827148 32.74593099 13.97827148 32.91259766 C13.64827148 33.24259766 13.31827148 33.57259766 12.97827148 33.91259766 C10.13492101 34.0124674 7.32129985 34.05137647 4.47827148 34.03759766 C3.28137695 34.04339844 3.28137695 34.04339844 2.06030273 34.04931641 C-3.89512084 34.03920533 -3.89512084 34.03920533 -5.02172852 32.91259766 C-5.14672852 30.41259766 -5.14672852 30.41259766 -5.02172852 27.91259766 C-2.76092322 25.65179236 2.71764606 26.58623499 5.77905273 26.48681641 C9.51575112 25.81612695 10.72668264 24.91835947 12.97827148 21.91259766 C13.56172624 18.87006258 13.56172624 18.87006258 12.97827148 15.91259766 C11.44585655 13.91362992 10.58336586 13.02099712 8.07714844 12.57202148 C7.38065186 12.58773193 6.68415527 12.60344238 5.96655273 12.61962891 C5.20922852 12.62929688 4.4519043 12.63896484 3.67163086 12.64892578 C2.49310547 12.68663086 2.49310547 12.68663086 1.29077148 12.72509766 C0.49348633 12.73863281 -0.30379883 12.75216797 -1.12524414 12.76611328 C-3.09102819 12.80142677 -5.05646434 12.85523319 -7.02172852 12.91259766 C-7.35172852 11.92259766 -7.68172852 10.93259766 -8.02172852 9.91259766 C-11.31103256 9.54574068 -11.31103256 9.54574068 -14.02172852 10.91259766 Z " fill="#FFFFFF" transform="translate(21.021728515625,6.08740234375)"/>
<path d="M0 0 C3.63 0 7.26 0 11 0 C11.33 4.62 11.66 9.24 12 14 C12.33 13.67 12.66 13.34 13 13 C16.09765625 12.62109375 16.09765625 12.62109375 20.0625 12.4375 C21.99802734 12.31181641 21.99802734 12.31181641 23.97265625 12.18359375 C28.62111107 12.63662599 31.38973678 15.00777693 34.46264648 18.39086914 C37.44453667 23.45160607 36.82554809 28.80290839 36.5 34.5 C36.46390625 35.70398437 36.4278125 36.90796875 36.390625 38.1484375 C36.29691372 41.10034292 36.15343721 44.05059592 36 47 C32.04 47 28.08 47 24 47 C23.505 35.615 23.505 35.615 23 24 C14.96896279 23.32917961 14.96896279 23.32917961 12 25 C11.67 32.26 11.34 39.52 11 47 C7.37 47 3.74 47 0 47 C0 31.49 0 15.98 0 0 Z " fill="#FFFFFF" transform="translate(166,4)"/>
<path d="M0 0 C3.85337428 -0.20460792 7.70534211 -0.32806124 11.5625 -0.4375 C13.19155273 -0.52547852 13.19155273 -0.52547852 14.85351562 -0.61523438 C20.02286838 -0.7252206 24.11097921 -0.68948908 28.25 2.65625 C32.63927822 7.94685594 31.74787027 14.43336698 31.4375 20.9375 C31.40591797 22.19369141 31.37433594 23.44988281 31.34179688 24.74414062 C31.25961453 27.83184881 31.1447677 30.91469797 31 34 C28.03 34 25.06 34 22 34 C22 33.34 22 32.68 22 32 C21.01 32.66 20.02 33.32 19 34 C16.07943945 34.49596551 13.14575372 34.46216462 10.1875 34.5 C9.39279297 34.54125 8.59808594 34.5825 7.77929688 34.625 C3.38512631 34.68315279 0.74842164 34.31634239 -2.52734375 31.25 C-4.66994541 28.73672788 -5.82383192 26.89626837 -5.75 23.5 C-5.76546875 22.7884375 -5.7809375 22.076875 -5.796875 21.34375 C-4.50993473 17.55863155 -2.39205505 15.11660115 1 13 C4.33315677 12.29986527 7.48823837 12.42607876 10.875 12.625 C11.75414062 12.65207031 12.63328125 12.67914063 13.5390625 12.70703125 C15.69377601 12.77729365 17.84721593 12.88490065 20 13 C18.40733826 9.86729591 18.40733826 9.86729591 16.12060547 9.56762695 C15.37697754 9.54144287 14.63334961 9.51525879 13.8671875 9.48828125 C13.06152344 9.45283203 12.25585938 9.41738281 11.42578125 9.38085938 C10.58402344 9.35830078 9.74226562 9.33574219 8.875 9.3125 C8.02550781 9.27833984 7.17601562 9.24417969 6.30078125 9.20898438 C4.20098895 9.12640827 2.10051436 9.06153022 0 9 C0 6.03 0 3.06 0 0 Z M8 20 C7.67 21.65 7.34 23.3 7 25 C8.57922406 26.57922406 10.19443874 26.207659 12.375 26.25 C13.16648438 26.27578125 13.95796875 26.3015625 14.7734375 26.328125 C17.06620815 26.1694435 17.06620815 26.1694435 18.7890625 24.671875 C20.29329771 22.93911806 20.29329771 22.93911806 20 20 C16.04 20 12.08 20 8 20 Z " fill="#FFFFFF" transform="translate(212,17)"/>
<path d="M0 0 C1.26070313 0.02707031 2.52140625 0.05414062 3.8203125 0.08203125 C6.92363083 0.15256121 10.02343004 0.25108971 13.125 0.375 C13.125 3.345 13.125 6.315 13.125 9.375 C6.195 9.375 -0.735 9.375 -7.875 9.375 C-7.545 10.365 -7.215 11.355 -6.875 12.375 C-5.77800781 12.38917969 -4.68101562 12.40335938 -3.55078125 12.41796875 C-2.09631302 12.46488708 -0.64188723 12.51313438 0.8125 12.5625 C1.53373047 12.56830078 2.25496094 12.57410156 2.99804688 12.58007812 C7.02379438 12.7455198 8.76850561 13.1110166 12.10546875 15.58203125 C14.33986797 18.67215783 14.80290558 20.10812247 14.75 23.875 C14.76289063 24.7928125 14.77578125 25.710625 14.7890625 26.65625 C13.85788561 30.46859774 12.13334412 31.9021887 9.125 34.375 C5.98706055 34.94262695 5.98706055 34.94262695 2.51171875 34.86328125 C1.26455078 34.84716797 0.01738281 34.83105469 -1.26757812 34.81445312 C-2.56115234 34.77255859 -3.85472656 34.73066406 -5.1875 34.6875 C-6.50041016 34.66494141 -7.81332031 34.64238281 -9.16601562 34.61914062 C-12.4035013 34.56027725 -15.63867 34.47808804 -18.875 34.375 C-18.875 31.735 -18.875 29.095 -18.875 26.375 C-8.48 25.88 -8.48 25.88 2.125 25.375 C2.455 24.385 2.785 23.395 3.125 22.375 C1.51431641 22.49681641 1.51431641 22.49681641 -0.12890625 22.62109375 C-11.11363479 23.20974536 -11.11363479 23.20974536 -15.49609375 21.1328125 C-18.82826481 18.1262382 -20.30040663 15.29063898 -20.6875 10.8125 C-20.71884206 7.3962152 -19.63548786 6.01808835 -17.69140625 3.12109375 C-12.83744659 -1.43930005 -6.21902864 -0.25264804 0 0 Z " fill="#FFFFFF" transform="translate(268.875,16.625)"/>
<path d="M0 0 C2.8125 -0.3125 2.8125 -0.3125 6 0 C9.95940867 5.09218067 11.69627867 12.00775063 13.77539062 18.046875 C14.70353627 20.52679263 15.57589751 22.76652388 17 25 C20.12039048 26.27936568 20.12039048 26.27936568 23 26 C23.26039063 25.16726562 23.52078125 24.33453125 23.7890625 23.4765625 C25.11790697 19.6614929 26.68177266 16.03879365 28.375 12.375 C28.81199219 11.39273437 28.81199219 11.39273437 29.2578125 10.390625 C31.01340872 6.58683319 32.71912706 3.64149022 36 1 C40.06901093 -0.13028081 42.26685658 -0.26787933 46.25 1.1875 C50.64692475 4.08547313 52.37111966 7.4843132 54.26171875 12.31640625 C54.65810547 13.32767578 55.05449219 14.33894531 55.46289062 15.38085938 C55.86701172 16.43080078 56.27113281 17.48074219 56.6875 18.5625 C57.10322266 19.61630859 57.51894531 20.67011719 57.94726562 21.75585938 C61 29.61076047 61 29.61076047 61 33 C58.69 33 56.38 33 54 33 C53.27083333 31.25 52.54166667 29.5 51.8125 27.75 C51.12607422 26.12384766 51.12607422 26.12384766 50.42578125 24.46484375 C49.48631778 22.18181883 48.58661874 19.88196268 47.73046875 17.56640625 C47.32441406 16.49261719 46.91835938 15.41882813 46.5 14.3125 C45.95859375 12.82169922 45.95859375 12.82169922 45.40625 11.30078125 C44.18693237 8.73850043 44.18693237 8.73850043 41.34375 8.16796875 C40.18359375 8.08482422 40.18359375 8.08482422 39 8 C35.60172171 11.95125257 34.12806504 16.58801075 32.42578125 21.42382812 C30.5258594 26.48859305 28.03166303 30.48416848 23 33 C19.41629747 33.27046812 16.69709955 33.25938588 13.3125 32 C7.94590492 27.35862047 5.76726379 19.23222435 3.25 12.75 C2.93417969 11.96109375 2.61835938 11.1721875 2.29296875 10.359375 C1.99519531 9.59625 1.69742187 8.833125 1.390625 8.046875 C1.12282227 7.36463867 0.85501953 6.68240234 0.57910156 5.97949219 C0 4 0 4 0 0 Z " fill="#FFFFFF" transform="translate(428,6)"/>
<path d="M0 0 C3.63 0 7.26 0 11 0 C11 2.97 11 5.94 11 9 C14.63 9 18.26 9 22 9 C22 11.97 22 14.94 22 18 C18.37 18 14.74 18 11 18 C11.33 22.95 11.66 27.9 12 33 C15.63 33.33 19.26 33.66 23 34 C23 36.97 23 39.94 23 43 C20.10259378 43.13539281 17.21154379 43.23426829 14.3125 43.3125 C13.49587891 43.35439453 12.67925781 43.39628906 11.83789062 43.43945312 C7.70922724 43.52302931 5.52764464 43.32304774 1.9375 41.125 C-0.85048787 36.62824537 -0.55023884 32.86289165 -0.3125 27.6875 C-0.27866211 26.29047852 -0.27866211 26.29047852 -0.24414062 24.86523438 C-0.18542078 22.5751604 -0.10336858 20.28842125 0 18 C-2.31 18 -4.62 18 -7 18 C-7 15.03 -7 12.06 -7 9 C-4.69 9 -2.38 9 0 9 C0 6.03 0 3.06 0 0 Z " fill="#FFFFFF" transform="translate(69,8)"/>
<path d="M0 0 C4.13425746 4.23654836 6.57348555 9.59563099 9.25 14.8125 C9.70890625 15.69615234 10.1678125 16.57980469 10.640625 17.49023438 C11.76534639 19.65766621 12.88495706 21.82757776 14 24 C14.33 24 14.66 24 15 24 C15.33 16.08 15.66 8.16 16 0 C17.65 -0.33 19.3 -0.66 21 -1 C23.6229529 1.6229529 22.27440674 8.74204897 22.29516602 12.30078125 C22.31237509 14.3600529 22.35624432 16.41771703 22.40039062 18.4765625 C22.40876953 19.77078125 22.41714844 21.065 22.42578125 22.3984375 C22.44036377 23.59130371 22.45494629 24.78416992 22.4699707 26.01318359 C22 29 22 29 20.21948242 30.88134766 C16.91349854 32.54761299 13.54017797 33.00206155 10 32 C5.14100514 28.12363627 2.81695585 23.29454357 0.1875 17.8125 C-0.21919922 16.99330078 -0.62589844 16.17410156 -1.04492188 15.33007812 C-4 9.29575893 -4 9.29575893 -4 7 C-4.66 7 -5.32 7 -6 7 C-6 15.25 -6 23.5 -6 32 C-8.31 32 -10.62 32 -13 32 C-13.08704 27.41678618 -13.14040632 22.83378466 -13.1875 18.25 C-13.21263672 16.94804687 -13.23777344 15.64609375 -13.26367188 14.3046875 C-13.27333984 13.05429687 -13.28300781 11.80390625 -13.29296875 10.515625 C-13.31653442 8.78747559 -13.31653442 8.78747559 -13.34057617 7.02441406 C-12.96448626 3.68462782 -12.36613664 2.34641019 -10 0 C-6.16652698 -1.27782434 -3.91272241 -0.96101954 0 0 Z " fill="#FFFFFF" transform="translate(369,7)"/>
<path d="M0 0 C5.94 0 11.88 0 18 0 C18 15.51 18 31.02 18 47 C14.04 47 10.08 47 6 47 C6 34.46 6 21.92 6 9 C4.02 9 2.04 9 0 9 C0 6.03 0 3.06 0 0 Z " fill="#FFFFFF" transform="translate(140,4)"/>
<path d="M0 0 C3.56077441 2.57793622 5.23745366 5.34471328 6.32421875 9.578125 C7.17826618 14.98432813 6.73907053 18.81053307 3.9765625 23.55859375 C1.72658794 26.60309057 -0.91798099 28.57227174 -4.2734375 30.25 C-11.96613585 30.90630014 -18.06126153 31.11170293 -24.2734375 26.25 C-28.48399514 21.6183866 -28.61826833 17.00084645 -28.5546875 10.9765625 C-28.03041396 5.89402178 -25.38595153 3.27907547 -21.7734375 -0.0625 C-15.20280177 -4.49767912 -6.69613092 -3.84160499 0 0 Z M-19.2734375 6.25 C-21.67759219 9.66234859 -22.2734375 11.63189691 -22.2734375 15.8125 C-21.02140574 20.11635918 -20.00668788 21.73577015 -16.2734375 24.25 C-12.80165063 24.95119833 -9.74200875 24.97902647 -6.2734375 24.25 C-3.44919462 22.05977082 -1.85835147 20.41982793 -0.2734375 17.25 C-0.23263901 13.02327608 -0.57733211 9.36376863 -2.8359375 5.75 C-8.52327508 2.25009995 -13.91314749 2.38560488 -19.2734375 6.25 Z " fill="#FFFFFF" transform="translate(422.2734375,8.75)"/>
<path d="M0 0 C2.97 0 5.94 0 9 0 C9.33 0.66 9.66 1.32 10 2 C10.66 1.34 11.32 0.68 12 0 C15.2578125 -0.1953125 15.2578125 -0.1953125 19.125 -0.125 C21.04699219 -0.09792969 21.04699219 -0.09792969 23.0078125 -0.0703125 C24.48894531 -0.03550781 24.48894531 -0.03550781 26 0 C26 3.3 26 6.6 26 10 C25.07316406 10.06058594 24.14632812 10.12117188 23.19140625 10.18359375 C21.99386719 10.26738281 20.79632813 10.35117187 19.5625 10.4375 C18.36753906 10.51871094 17.17257813 10.59992187 15.94140625 10.68359375 C13.11429756 10.67656114 13.11429756 10.67656114 12 12 C11.84285346 13.63256758 11.74914586 15.27135338 11.68359375 16.91015625 C11.64169922 17.89951172 11.59980469 18.88886719 11.55664062 19.90820312 C11.51732422 20.94912109 11.47800781 21.99003906 11.4375 23.0625 C11.39431641 24.10728516 11.35113281 25.15207031 11.30664062 26.22851562 C11.20018895 28.81883972 11.09955692 31.40940175 11 34 C7.37 34 3.74 34 0 34 C0 22.78 0 11.56 0 0 Z " fill="#FFFFFF" transform="translate(97,17)"/>
<path d="M0 0 C3.63 0 7.26 0 11 0 C11 11.22 11 22.44 11 34 C7.37 34 3.74 34 0 34 C0 22.78 0 11.56 0 0 Z " fill="#FFFFFF" transform="translate(126,17)"/>
<path d="M0 0 C2.3125 0 2.3125 0 5 1 C6.6721029 3.23482984 7.76022695 5.47453638 9 8 C11.12038635 5.38485683 13.13091744 2.80362384 15 0 C17.475 0.495 17.475 0.495 20 1 C20.33 3.31 20.66 5.62 21 8 C21 6.68 21 5.36 21 4 C22.45792884 3.94600264 23.91642712 3.90720823 25.375 3.875 C26.18710937 3.85179687 26.99921875 3.82859375 27.8359375 3.8046875 C30 4 30 4 32 6 C32.27240673 9.01826653 32.08675125 11.96370622 32 15 C26.39 15 20.78 15 15 15 C14.67 14.01 14.34 13.02 14 12 C13.01 13.485 13.01 13.485 12 15 C9.5 15.375 9.5 15.375 7 15 C6.34 14.01 5.68 13.02 5 12 C4.67 12.99 4.34 13.98 4 15 C2.35 15 0.7 15 -1 15 C-1.02685412 12.68756208 -1.04632841 10.3750373 -1.0625 8.0625 C-1.07410156 6.77472656 -1.08570313 5.48695312 -1.09765625 4.16015625 C-1 1 -1 1 0 0 Z " fill="#FFFFFF" transform="translate(362,40)"/>
<path d="M0 0 C1.5625 1.125 1.5625 1.125 2.5625 3.125 C2.90753098 6.85133459 3.04798923 9.26436 1.1875 12.5625 C-2.80772887 14.94061242 -6.89354324 14.77738778 -11.4375 14.125 C-12.4275 13.465 -13.4175 12.805 -14.4375 12.125 C-15.0975 12.785 -15.7575 13.445 -16.4375 14.125 C-18.78515625 14.35546875 -18.78515625 14.35546875 -21.5 14.3125 C-22.39847656 14.30605469 -23.29695313 14.29960938 -24.22265625 14.29296875 C-26.4375 14.125 -26.4375 14.125 -27.4375 13.125 C-27.50955511 11.43891034 -27.52136068 9.74999341 -27.5 8.0625 C-27.49097656 7.14339844 -27.48195313 6.22429688 -27.47265625 5.27734375 C-27.46105469 4.56707031 -27.44945312 3.85679688 -27.4375 3.125 C-24.4675 3.125 -21.4975 3.125 -18.4375 3.125 C-18.7675 4.115 -19.0975 5.105 -19.4375 6.125 C-16.24768585 5.42327938 -16.24768585 5.42327938 -14.9375 2.625 C-11.94926521 -2.35539132 -5.00370835 -1.796203 0 0 Z M-9.4375 3.125 C-10.0975 4.445 -10.7575 5.765 -11.4375 7.125 C-10.4475 8.61 -10.4475 8.61 -9.4375 10.125 C-6.4375 10.54166667 -6.4375 10.54166667 -3.4375 10.125 C-2.7775 9.465 -2.1175 8.805 -1.4375 8.125 C-1.84278901 5.34262345 -1.84278901 5.34262345 -3.4375 3.125 C-5.43708364 3.08419217 -7.43795254 3.08245644 -9.4375 3.125 Z " fill="#FFFFFF" transform="translate(470.4375,40.875)"/>
<path d="M0 0 C1.32 0 2.64 0 4 0 C4 20.13 4 40.26 4 61 C2.68 61 1.36 61 0 61 C0 40.87 0 20.74 0 0 Z " fill="#FFFFFF" transform="translate(309,0)"/>
<path d="M0 0 C1.98 0 3.96 0 6 0 C6 10.89 6 21.78 6 33 C4.02 33 2.04 33 0 33 C0 22.11 0 11.22 0 0 Z " fill="#FFFFFF" transform="translate(346,6)"/>
<path d="M0 0 C3.12522772 -0.05378021 6.2495371 -0.09356575 9.375 -0.125 C10.26445312 -0.14175781 11.15390625 -0.15851562 12.0703125 -0.17578125 C12.92109375 -0.18222656 13.771875 -0.18867187 14.6484375 -0.1953125 C15.82672119 -0.21102295 15.82672119 -0.21102295 17.02880859 -0.22705078 C19 0 19 0 21 2 C21.1953125 4.1640625 21.1953125 4.1640625 21.125 6.625 C21.10695313 7.44226562 21.08890625 8.25953125 21.0703125 9.1015625 C21.04710937 9.72804688 21.02390625 10.35453125 21 11 C19.37536158 11.05395478 17.75021459 11.09277195 16.125 11.125 C14.76761719 11.15980469 14.76761719 11.15980469 13.3828125 11.1953125 C11 11 11 11 9 9 C9.375 6.875 9.375 6.875 10 5 C7.03 4.505 7.03 4.505 4 4 C4 6.31 4 8.62 4 11 C2.68 11 1.36 11 0 11 C0 7.37 0 3.74 0 0 Z " fill="#FFFFFF" transform="translate(395,44)"/>
<path d="M0 0 C1.32 0 2.64 0 4 0 C4.33 1.32 4.66 2.64 5 4 C5.969375 4.144375 6.93875 4.28875 7.9375 4.4375 C11 5 11 5 12 6 C12.07179964 7.51928038 12.08392007 9.04167482 12.0625 10.5625 C12.05347656 11.38878906 12.04445313 12.21507812 12.03515625 13.06640625 C12.02355469 13.70449219 12.01195312 14.34257813 12 15 C10.68 15 9.36 15 8 15 C8 12.69 8 10.38 8 8 C6.68 8 5.36 8 4 8 C4 10.31 4 12.62 4 15 C2.68 15 1.36 15 0 15 C0 10.05 0 5.1 0 0 Z " fill="#FFFFFF" transform="translate(430,40)"/>
<path d="M0 0 C8.625 -0.25 8.625 -0.25 12 2 C12.29296875 4.1640625 12.29296875 4.1640625 12.1875 6.625 C12.16042969 7.44226562 12.13335937 8.25953125 12.10546875 9.1015625 C12.07066406 9.72804688 12.03585937 10.35453125 12 11 C10.68 11 9.36 11 8 11 C8 8.69 8 6.38 8 4 C6.68 4 5.36 4 4 4 C4 6.31 4 8.62 4 11 C2.68 11 1.36 11 0 11 C0 7.37 0 3.74 0 0 Z " fill="#FFFFFF" transform="translate(417,44)"/>
<path d="M0 0 C3.63 0 7.26 0 11 0 C11 2.97 11 5.94 11 9 C7.37 9 3.74 9 0 9 C0 6.03 0 3.06 0 0 Z " fill="#FFFFFF" transform="translate(126,4)"/>
</svg>
